<svg width="263" height="327" fill="none" xmlns="http://www.w3.org/2000/svg"><g clip-path="url(#a)" fill="#7C5F4A"><path d="M235.927 52.038c-4.537-3.773-9.928-5.996-15.25-8.434-5.693-2.596-11.403-5.142-17.179-7.546-11.528-4.782-23.322-8.81-35.511-11.53-12.467-2.788-25.035-5.166-37.554-7.715-12.641-2.576-25.268-5.38-37.982-7.557-6.931-1.194-14.035-2.15-21.085-1.908-2.85.1-5.944.455-8.369 2.1-2.295 1.571-3.773 4.258-3.356 7.077.15 1.013-1.44 1.511-1.768.492-1.67-5.198 2.929-9.653 7.57-10.983 2.676-.765 5.468-.856 8.233-.815 3.336.037 6.668.256 9.98.656 6.506.763 12.932 2.07 19.339 3.395a8362.996 8362.996 0 0 0 19.89 4.099c13.114 2.679 26.238 5.322 39.341 8.041a224.423 224.423 0 0 1 37.236 11.045c6.74 2.665 13.385 5.578 19.946 8.653 3.236 1.519 6.509 2.99 9.675 4.646 2.789 1.46 5.576 3.093 7.472 5.676.301.41-.233.983-.643.642l.015-.034Z"/><path d="M61.672 12.164c17.833 11.791 37.176 20.742 57.508 27.303 20.333 6.56 41.349 10.77 62.362 14.387 12.781 2.186 25.551 4.094 38.332 6.081 1.255.195 1.005 2.154-.255 1.958-22.201-3.448-44.451-6.767-66.382-11.691-20.818-4.68-41.514-10.854-61.037-19.546a184.83 184.83 0 0 1-31.32-17.471c-.684-.481.104-1.476.792-1.02ZM241.733 63.402c-.561-.95-.606-2.049-.908-3.102a16.508 16.508 0 0 0-1.356-3.276 18.09 18.09 0 0 0-1.845-2.89c-.718-.866-1.809-1.557-2.34-2.54a.603.603 0 0 1 .078-.597.608.608 0 0 1 .553-.236c1.11.264 2.02 1.308 2.781 2.123.921.93 1.723 1.97 2.388 3.096a17.065 17.065 0 0 1 1.504 3.703c.32 1.154.695 2.41.266 3.578a.661.661 0 0 1-.858.347.657.657 0 0 1-.268-.206h.005Z"/><path d="M228.604 61.438c2.118-.206 4.23-.375 6.357-.459l3.084-.121a15.235 15.235 0 0 1 3.113-.029.903.903 0 0 1 .009 1.778 15.377 15.377 0 0 1-3.088.121l-3.213.026c-2.091.005-4.17-.083-6.246-.19a.566.566 0 0 1-.007-1.115l-.009-.011ZM239.439 55.61c-6.314.328-12.781-.498-19.073-1.182a364.763 364.763 0 0 1-9.653-1.167c-1.541-.2-3.083-.401-4.594-.64-1.367-.178-3.177-.162-4.338-.956a.453.453 0 0 1 .099-.766c1.299-.385 2.879.129 4.197.321 1.608.21 3.206.46 4.815.669 3.142.409 6.287.789 9.436 1.14 6.35.684 12.81.919 19.108 2 .308.04.344.567.003.58ZM192.54 49.783c-8.765-.399-17.469-1.782-26.075-3.436a274.4 274.4 0 0 1-25.178-6.078 278.009 278.009 0 0 1-48.67-19.284A288.832 288.832 0 0 1 67.198 6.33c-.872-.568.122-1.86.999-1.286a268.965 268.965 0 0 0 45.977 24.192 277.275 277.275 0 0 0 49.709 15.108c9.531 1.94 19.164 3.179 28.781 4.572a.442.442 0 0 1 .333.485.441.441 0 0 1-.446.383l-.01-.001Z"/><path d="M145.732 23.627c-9.241-.957-18.39-2.576-27.534-4.195A1424.015 1424.015 0 0 1 90.812 14.3a1021.104 1021.104 0 0 1-15.597-3.2c-.946-.202-.76-1.709.196-1.506a1347.725 1347.725 0 0 0 54.752 10.335 407.933 407.933 0 0 1 15.672 2.907.407.407 0 0 1 .307.45.41.41 0 0 1-.412.357l.002-.016ZM242.492 62.629c.17 3.387-.206 6.84-.432 10.223-.241 3.496-.507 6.99-.841 10.479-.618 6.875-1.392 13.746-2.47 20.583-1.596 10.135-4.502 21.62-13.678 27.554a25.71 25.71 0 0 1-8.758 3.407c-1.539.314-3.096.53-4.662.647-1.631.128-3.347.296-4.96-.034a.864.864 0 0 1-.712-.845.86.86 0 0 1 .707-.849 35.174 35.174 0 0 1 3.96-.226 38.56 38.56 0 0 0 4.327-.482 26.833 26.833 0 0 0 7.893-2.579c4.701-2.43 8.012-6.431 10.235-11.18 2.222-4.748 3.368-9.82 4.18-14.935 1.04-6.387 1.78-12.834 2.393-19.271.357-3.706.666-7.416.926-11.131.265-3.76.267-7.627.851-11.35.072-.56 1.005-.617 1.045-.006l-.004-.005ZM203.135 135.098a484.7 484.7 0 0 1-50.466-6.683c-16.133-2.936-32.579-6.027-47.66-12.667a116.398 116.398 0 0 1-11.461-5.819c-3.734-2.153-7.578-4.42-10.874-7.206a.687.687 0 0 1 .837-1.088c3.223 2.06 6.294 4.321 9.576 6.29a114.346 114.346 0 0 0 10.295 5.463 123.304 123.304 0 0 0 22.591 7.889c16.196 4.047 32.781 6.88 49.319 9.194 9.316 1.301 18.665 2.309 28.023 3.245.894.116.715 1.452-.18 1.382ZM91.813 38.487c-.562 5.89-1.787 11.724-3.091 17.492-.64 2.822-1.326 5.63-2.058 8.423-.37 1.39-.745 2.775-1.126 4.154-.361 1.286-.557 2.912-1.454 3.94a.414.414 0 0 1-.728-.189c-.17-1.224.408-2.492.737-3.656.415-1.472.82-2.948 1.214-4.426a247.836 247.836 0 0 0 2.108-8.61c1.298-5.715 2.28-11.498 3.527-17.22a.44.44 0 0 1 .869.112l.002-.02ZM81.6 83.346c-2.385 11.824-5.543 23.522-8.4 35.238-2.831 11.589-5.429 23.235-8.351 34.807-.83 3.289-1.671 6.576-2.491 9.866-.772 3.119-1.235 6.634-2.659 9.506a.387.387 0 0 1-.451.204.385.385 0 0 1-.286-.405c.076-3.032 1.183-6.117 1.91-9.059.702-2.856 1.378-5.726 2.068-8.615 1.408-5.879 2.881-11.739 4.334-17.602 2.874-11.599 5.924-23.149 8.808-34.747 1.604-6.465 3.14-12.96 5.007-19.36.085-.291.575-.16.505.14l.007.027ZM59.315 18.386c-.2 3.391-.967 6.668-1.636 9.998a946.81 946.81 0 0 1-2.057 9.944 3781.3 3781.3 0 0 1-12.941 58.636 3805.932 3805.932 0 0 1-18.718 77.686 2647.114 2647.114 0 0 1-5.578 21.814c-.917 3.567-1.845 7.127-2.785 10.681-.852 3.254-1.548 6.592-3.42 9.484-.647.961-2.02-.132-1.426-1.084 1.762-2.693 2.386-5.961 3.194-9.039.808-3.077 1.651-6.265 2.467-9.399 1.693-6.48 3.368-12.963 5.024-19.451 3.28-12.837 6.49-25.69 9.628-38.56a3511.478 3511.478 0 0 0 22.601-99.208c.767-3.6 1.522-7.197 2.304-10.795.782-3.599 1.44-7.323 2.712-10.837.132-.37.657-.186.636.172l-.005-.043Z"/><path d="M203.715 136.303c-2.963 1.407-6.224 1.766-9.472 1.788a103.914 103.914 0 0 1-10.713-.611 133.398 133.398 0 0 1-22.073-4.148 130.762 130.762 0 0 1-5.958-1.768c-1.003-.324-1.993-.745-2.991-1.11a11.574 11.574 0 0 1-2.848-1.244.447.447 0 0 1-.133-.521.451.451 0 0 1 .461-.278c1.634.14 3.284.992 4.869 1.423 1.791.495 3.546 1.105 5.329 1.619a136.18 136.18 0 0 0 10.634 2.617 140.182 140.182 0 0 0 21.202 2.812 33.744 33.744 0 0 0 11.448-1.181.336.336 0 0 1 .437.177.332.332 0 0 1 .001.255.33.33 0 0 1-.179.182l-.014-.012Z"/><path d="M136.809 124.465c.944.217 1.764.825 2.608 1.29l2.471 1.367a96.44 96.44 0 0 0 5.037 2.542 100.638 100.638 0 0 0 10.857 4.356 98.111 98.111 0 0 0 11.501 3.028c1.848.376 3.696.716 5.562.99 1.99.291 4.034.368 6.003.782.574.121.675 1.075.001 1.113-1.938.039-3.876-.1-5.789-.414-1.999-.26-4.003-.521-5.98-.914a93.13 93.13 0 0 1-11.51-3.035 89.91 89.91 0 0 1-11.222-4.523 111.548 111.548 0 0 1-5.386-2.791 60.312 60.312 0 0 1-2.225-1.335c-.806-.512-1.743-.979-2.34-1.736a.416.416 0 0 1-.025-.459.413.413 0 0 1 .41-.207l.027-.054ZM208.696 135.299c-.091.94-.182 1.879-.268 2.819-.107.827-.039 1.667-.557 2.358a.68.68 0 0 1-.613.246.68.68 0 0 1-.316-.128.683.683 0 0 1-.212-.267c-.354-.778-.118-1.583-.013-2.432l.365-2.806c.134-1.027 1.732-.819 1.634.213l-.02-.003ZM203.29 140.172c-1.711 1.1-3.733 1.014-5.679.871-1.315-.098-2.627-.212-3.941-.32-1.313-.108-2.753-.045-3.991-.572a.325.325 0 0 1-.098-.52.326.326 0 0 1 .178-.096c1.078-.252 2.098-.056 3.177.042l3.715.332c2.107.191 4.348.681 6.362-.217.283-.13.551.302.277.48ZM195.302 145.331c-.973-1.073-2.427-1.669-3.782-2.102a34.206 34.206 0 0 0-4.813-1.201c-2.937-.487-5.719-.034-8.132 1.769a12.757 12.757 0 0 0-4.422 6.589 14.577 14.577 0 0 0-.684 4.928c.087 1.543.578 2.955.938 4.439.068.281-.344.358-.455.129-.786-1.592-1.015-3.487-1.238-5.225a14.043 14.043 0 0 1 .159-5.002 12.439 12.439 0 0 1 5.109-7.409 11.923 11.923 0 0 1 9.344-1.721c1.734.353 3.441.827 5.109 1.417 1.543.557 2.822 1.324 3.674 2.768a.514.514 0 0 1-.145.645.521.521 0 0 1-.662-.024Z"/><path d="M174.173 158.343c.46.878.97 1.73 1.528 2.55a9.828 9.828 0 0 0 2.654 2.258 13.481 13.481 0 0 0 3.406 1.416c1.155.317 2.492.324 3.546.864.617.315.652 1.491-.197 1.511-1.306.034-2.617-.571-3.823-1.021a19.047 19.047 0 0 1-3.769-1.844c-1.733-1.14-3.949-3.221-3.993-5.453-.011-.32.43-.618.647-.276l.001-.005Z"/><path d="M185.077 164.905c1.87 1.095 3.525 2.674 5.223 4.04 1.419 1.146 3.035 2.266 4.199 3.682 1.164 1.416 1.434 3.15 2.049 4.772a27.303 27.303 0 0 0 2.265 4.559 42.644 42.644 0 0 0 6.379 7.969 89.67 89.67 0 0 0 3.729 3.469c.62.541 1.247 1.067 1.883 1.594.637.527 1.333.968 1.685 1.714.242.512-.314.889-.763.763-.828-.228-1.441-.977-2.095-1.532-.654-.556-1.233-1.086-1.847-1.631a91.056 91.056 0 0 1-3.619-3.356c-2.385-2.353-4.737-4.797-6.556-7.647a29.777 29.777 0 0 1-2.303-4.266c-.677-1.547-.965-3.387-1.878-4.807-1.064-1.665-3.086-2.874-4.583-4.14-1.6-1.358-3.368-2.633-4.752-4.209-.568-.649.358-1.343.979-.975l.005.001ZM231.044 165.849c-3.613-1.996-7.775-1.299-11.572-.309a13.343 13.343 0 0 0-5.037 2.276c-1.355 1.057-2.176 2.424-3.329 3.654a.23.23 0 0 1-.121.081.229.229 0 0 1-.285-.249c.139-1.717 1.411-3.255 2.626-4.362 1.496-1.373 3.409-2.096 5.343-2.623 4.263-1.154 8.989-1.966 12.837.751.426.301.005 1.046-.465.802l.003-.021Z"/><path d="M209.478 174.827a27.349 27.349 0 0 0 1.416 16.506 10.363 10.363 0 0 0 5.002 5.412 26.416 26.416 0 0 0 7.267 2.514c5.024.904 9.99-3.195 12.811-6.961a20.034 20.034 0 0 0 4.031-13.466 14.04 14.04 0 0 0-2.925-7.802c-1.881-2.335-4.317-3.415-7.135-4.164-.879-.234-1.121-1.713-.009-1.778 5.759-.363 10.429 5.152 11.85 10.218 1.565 5.566.378 11.589-2.554 16.491-2.753 4.606-7.747 9.25-13.326 9.794-3.06.302-5.903-1.186-8.6-2.426-2.495-1.15-4.976-2.487-6.553-4.824-1.791-2.664-2.569-6.199-3.093-9.319-.593-3.474-.671-7.216.965-10.426.211-.417.978-.291.853.231Z"/><path d="M230.882 166.089c-2.811-1.776-5.295-4.007-8.142-5.705a23.256 23.256 0 0 0-4.564-2.115c-1.613-.539-3.271-.687-4.93-1.034-3.368-.699-6.027-3.199-8.736-5.15-3.088-2.216-6.428-4.302-9.173-6.943-.348-.338-.046-1.051.471-.806 3.315 1.675 6.312 4.062 9.348 6.192 1.557 1.091 3.107 2.191 4.676 3.263a11.798 11.798 0 0 0 5.284 1.89c6.343.972 12.322 4.943 16.574 9.657.46.488-.279 1.061-.762.757l-.046-.006ZM188.978 149.269c-2.355 2.029-4.58 4.149-4.83 7.44a13.387 13.387 0 0 0 .736 5.144c.464 1.451 1.198 2.842 1.397 4.363a.475.475 0 0 1-.063.297.475.475 0 0 1-.531.225.48.48 0 0 1-.257-.162c-1.154-1.42-1.796-3.312-2.284-5.059a12.837 12.837 0 0 1-.449-5.587c.552-3.357 2.864-5.941 5.873-7.342.434-.199.747.406.432.699l-.024-.018ZM211.494 195.393a7.711 7.711 0 0 1 1.976 1.078c.848.509 1.723.972 2.621 1.386.833.391 1.687.734 2.558 1.028.781.264 1.483.371 2.067.98.373.388.002.952-.429 1.052-.808.183-1.542-.2-2.279-.521a31.513 31.513 0 0 1-2.675-1.247 28.09 28.09 0 0 1-2.206-1.285c-.728-.466-1.624-.933-2.091-1.678-.2-.314-.006-.921.459-.798l-.001.005ZM214.274 184.315c1.161 2.241 2.292 4.511 3.509 6.728a145.194 145.194 0 0 0 1.809 3.209c.614 1.062 1.559 2.194 1.895 3.382.143.51-.414 1.138-.911.702-.939-.817-1.513-2.109-2.138-3.168a74.587 74.587 0 0 1-1.789-3.201 62.53 62.53 0 0 1-3.319-7.226.516.516 0 0 1 .657-.616.513.513 0 0 1 .283.216l.004-.026ZM216.746 181.663a128.303 128.303 0 0 1 4.456 7.525c1.407 2.561 3.077 5.104 3.827 7.815.159.585-.694.84-1.023.431a21.952 21.952 0 0 1-2.04-3.474c-.695-1.329-1.384-2.663-2.094-3.988-1.379-2.579-2.763-5.152-4.114-7.748-.298-.561.632-1.12.984-.572l.004.011ZM221.572 184.173c2.616 3.476 5.18 7.426 6.321 11.667.13.487-.601.606-.797.22-2.039-3.845-3.747-7.747-6.265-11.33-.34-.484.37-1.034.726-.559l.015.002ZM224.444 179.895a53.929 53.929 0 0 1 4.182 6.095c1.146 1.957 2.302 4.078 2.839 6.301.105.437-.55.686-.797.335-1.288-1.824-2.255-3.91-3.35-5.861a86.25 86.25 0 0 0-3.798-6.149c-.441-.627.465-1.329.94-.719l-.016-.002ZM223.971 172.371a113.544 113.544 0 0 1 3.456 5.566c1.046 1.803 2.373 3.81 2.897 5.849.155.621-.725.877-1.103.447a17.079 17.079 0 0 1-1.597-2.711 222.04 222.04 0 0 1-1.531-2.813 235.653 235.653 0 0 0-3.199-5.736c-.354-.611.681-1.218 1.074-.623l.003.021ZM217.267 173.521c.403.63.781 1.281 1.137 1.951.322.616.814 1.37.847 2.08a.45.45 0 0 1-.796.336c-.455-.52-.619-1.304-.905-1.921a24.428 24.428 0 0 0-1.052-1.998c-.251-.435.496-.876.766-.423l.003-.025ZM234.612 182.922a90.99 90.99 0 0 1 1.968 6.005c.185.625-.7 1.038-.961.398-.792-1.948-1.526-3.857-2.198-5.884-.259-.781.905-1.288 1.189-.503l.002-.016ZM231.811 186.775c.825.735 2.078 2.063 1.745 3.259a.616.616 0 0 1-.941.243 3.629 3.629 0 0 1-.748-1.399 5.984 5.984 0 0 0-.843-1.311c-.407-.487.305-1.22.787-.792ZM146.176 131.161c-.973 2.658-1.584 5.307.413 7.704 1.998 2.398 5.155 3.927 7.964 4.904 2.955 1.028 6.091 1.671 9.126 2.406 3.343.811 6.688 1.576 10.055 2.249 1.324.266 1.058 2.353-.272 2.086-7.349-1.479-14.838-3.044-21.613-6.356-2.688-1.317-5.826-3.141-7.164-5.955-1.069-2.229-1.038-5.716 1.045-7.384a.298.298 0 0 1 .176-.054.301.301 0 0 1 .278.215.3.3 0 0 1-.008.185Z"/><path d="M149.973 142.421a76.428 76.428 0 0 0-.348 4.485c-.073 1.36.148 2.878-.247 4.186a.518.518 0 0 1-.978.003c-.392-1.284-.156-2.816-.077-4.144.105-1.566.291-3.126.556-4.673a.552.552 0 0 1 .612-.425.553.553 0 0 1 .482.568Z"/><path d="M162.305 147.653a10.55 10.55 0 0 1-.603 2.67c-.21.922-.487 1.827-.828 2.709-.694 1.514-2.2 1.198-3.578 1.228a14.433 14.433 0 0 1-8.934-2.794.436.436 0 1 1 .539-.687 12.059 12.059 0 0 0 7.94 2.836 6.71 6.71 0 0 0 1.885-.382c.948-.3 1.146-.781 1.445-1.667.455-1.367.759-2.943 1.585-4.152.195-.294.581-.045.575.242l-.026-.003ZM106.307 115.775c-1.104 5.151-2.16 10.25-1.21 15.521.41 2.311 1.095 4.554 1.667 6.823.305 1.189.572 2.39.765 3.601.154 1.065.402 2.174.106 3.197a.555.555 0 0 1-.208.254.558.558 0 0 1-.629 0 .565.565 0 0 1-.208-.255c-.348-1.059-.225-2.286-.414-3.398-.187-1.216-.454-2.416-.748-3.61-.582-2.396-1.292-4.772-1.675-7.21-.818-5.077.041-10.316 1.528-15.192.173-.568 1.138-.312 1.01.272l.016-.003ZM111.493 118.29l-.101.175a.368.368 0 0 1-.652-.174c.009-.066-.013-.137-.025-.207a.444.444 0 0 1 .159-.363.445.445 0 0 1 .386-.088.407.407 0 0 1 .286.246c.03.071.04.149.03.226a.451.451 0 0 1-.086.211l.003-.026ZM114.03 118.636c-.124 2.074-.901 4.106-1.165 6.177-.26 2.011-.195 4.05.191 6.041.377 1.961.894 3.894 1.358 5.831l.712 2.962c.227.944.638 1.881.357 2.837-.12.402-.642.355-.877.111-.662-.698-.701-1.837-.919-2.733-.218-.896-.47-1.974-.702-2.961-.508-2.156-1.095-4.276-1.459-6.461-.328-1.99-.327-4.02.004-6.009.331-1.985.752-4.214 1.702-6.008a.421.421 0 0 1 .797.218l.001-.005Z"/><path d="M118.879 150.561c-.37-1.616-.411-3.346-.878-4.938-.467-1.592-2.109-2.224-3.645-2.387a8.14 8.14 0 0 0-3.988.563 9.44 9.44 0 0 0-3.569 2.488.203.203 0 0 1-.125.076.203.203 0 0 1-.144-.025.21.21 0 0 1-.086-.259c.727-1.567 1.533-2.581 3.14-3.323a9.439 9.439 0 0 1 5.09-.764c1.542.201 3.249.815 4.071 2.212.4.823.617 1.724.634 2.639.126 1.202.247 2.394.283 3.606a.394.394 0 0 1-.335.447.396.396 0 0 1-.448-.335ZM106.23 147.164c.737 2.767 1.464 5.616 1.119 8.508-.345 2.892-1.815 5.512-2.926 8.148a267.315 267.315 0 0 0-1.758 4.229c-.346.854-.689 1.604-.256 2.491.272.558.683 1.056 1.001 1.583 1.172 1.919 2.297 4.036 1.587 6.316-.289.934-1.779.338-1.422-.598.956-2.489-1.309-4.56-2.269-6.661a3.22 3.22 0 0 1 .097-2.752c.579-1.398 1.233-2.766 1.828-4.162 1.123-2.645 2.487-5.3 3.191-8.098.741-2.961.074-6.032-.548-8.956-.049-.226.29-.265.351-.048h.005Z"/><path d="M110.763 177.95c-1.021-.19-2.056-.267-3.084-.401-.925-.12-1.93-.105-2.793-.463a.551.551 0 0 1-.15-.859.548.548 0 0 1 .284-.168c1.859-.354 4.164.609 5.93 1.137.447.137.245.884-.214.798l.027-.044ZM112.529 176.743c1.307-.002 2.005 1.181 2.78 2.055a2.788 2.788 0 0 0 3.742.519c1.439-.858 2.22-2.518 2.846-3.999a28.332 28.332 0 0 0 1.56-4.84 34.28 34.28 0 0 0 .602-10.003 16.046 16.046 0 0 0-1.048-4.84 5.58 5.58 0 0 0-1.371-2.033c-.673-.611-1.424-.745-2.212-1.114a.494.494 0 0 1-.276-.504.492.492 0 0 1 .396-.416c1.501-.369 3.125.966 3.951 2.082 1.1 1.512 1.552 3.421 1.897 5.227a28.97 28.97 0 0 1-.174 12.217c-.779 3.338-2.032 7.983-5.221 9.836a4.827 4.827 0 0 1-4.636.248c-1.358-.73-2.147-2.26-3.344-3.22a.691.691 0 0 1-.196-.8.691.691 0 0 1 .706-.425l-.002.01Z"/><path d="M114.378 156.518c-1.018.95-1.24 2.494-1.539 3.793a76.018 76.018 0 0 0-.756 4.161 33.102 33.102 0 0 0-.499 4.116c-.035 1.275.472 3.401 2.201 3.166 1.527-.209 1.918-1.972 2.148-3.217a37.17 37.17 0 0 0 .501-3.849c.097-1.305.579-8.464-1.636-8.105-.652.109-.958-.913-.313-1.133 5.355-1.832 4.788 15.414.091 17.41a2.867 2.867 0 0 1-3.544-1.193c-.988-1.487-.707-3.363-.476-5.021a61.72 61.72 0 0 1 1.191-6.456c.377-1.613.737-3.255 2.169-4.26a.387.387 0 0 1 .475.099.39.39 0 0 1 .085.243.38.38 0 0 1-.087.242l-.011.004ZM117.972 152.555a9.42 9.42 0 0 0-3.437-.495c-1.055.072-2.066.494-3.115.682-.535.092-.996-.621-.597-1.034 1.916-1.993 5.618-1.731 7.762-.208.607.429.015 1.246-.613 1.055ZM115.096 179.309c-.202 1.192-.149 4.073-1.63 4.492-.758.199-1.637-.109-2.389-.233-.942-.154-1.885-.298-2.824-.467-1.303-.227-2.726-.584-3.424-1.804a3.887 3.887 0 0 1-.415-2.113c.022-.97-.06-1.989.506-2.804a.787.787 0 0 1 .312-.232c.123-.049.255-.066.386-.049a.771.771 0 0 1 .602.451c.543 1.048-.06 2.229.124 3.35.183 1.121 1.639 1.258 2.569 1.421l3.427.608.607.079-.1-.159c.096-.253.159-.517.186-.786.164-.653.343-1.309.517-1.96.254-.95 1.742-.819 1.572.204l-.026.002ZM149.451 182.328c-1.875-1.29-4.179-1.459-6.307-2.055-2.279-.636-4.124-2.042-6.132-3.238a43.08 43.08 0 0 0-6.54-3.193 42.607 42.607 0 0 0-3.241-1.122 36.599 36.599 0 0 1-3.673-1.048.622.622 0 0 1-.351-.736.623.623 0 0 1 .674-.46c2.296.069 4.836 1.152 6.958 1.951a43.21 43.21 0 0 1 6.493 3.196c2.194 1.331 4.171 2.885 6.687 3.552 2.131.57 4.315.859 6.084 2.286a.532.532 0 0 1 .105.738.532.532 0 0 1-.738.105l-.019.024Z"/><path d="M102.751 166.785c-6.416-.255-13.063-.697-19.342 1.047-.618.17-1.275.357-1.22 1.148.15.721.464 1.398.917 1.98a10.778 10.778 0 0 0 2.92 2.899 48.453 48.453 0 0 0 7.913 4.217c11.39 5.084 23.955 8.167 36.457 8.236a60.83 60.83 0 0 0 10.277-.659c1.068-.179 10.008-2.209 8.989-4.139-.39-.736.803-1.229 1.189-.504 1.404 2.623-3.874 4.267-5.489 4.789a38.523 38.523 0 0 1-9.758 1.578 89.616 89.616 0 0 1-21.574-1.36 84.23 84.23 0 0 1-20.416-6.645c-2.976-1.433-6.08-2.882-8.783-4.801-1.865-1.288-5.322-4.043-4.185-6.754.596-1.406 2.31-1.69 3.606-1.966a52.849 52.849 0 0 1 6.121-.891c4.125-.373 8.495-.462 12.565.391a.722.722 0 0 1-.185 1.424l-.002.01ZM77.762 187.568c-.008-.926.046-1.851.162-2.77a.53.53 0 0 1 .595-.458.53.53 0 0 1 .459.595c-.066 1.664-.109 3.32-.22 4.978-.1 1.492.047 3.294-.515 4.684a.683.683 0 0 1-1.295-.169c-.302-1.455.165-3.239.325-4.708.178-1.649.427-3.279.64-4.923l1.05.136c-.251.922-.563 1.826-.933 2.706-.069.164-.282.078-.283-.073l.015.002Z"/><path d="M78.167 185.258c-.59-1.362-1.825-2.035-3.19-2.506-1.688-.606-3.485-.976-5.222-1.4-3.4-.861-6.794-1.846-10.236-2.509-2.912-.556-6.184-.951-8.937.405-1.717.864-2.758 2.16-2.824 4.111-.066 2.03.034 4.076.073 6.104.132 7.616.727 15.25 1.305 22.819.282 3.696.457 7.45.784 11.161.144 1.587.349 3.265 1.317 4.582a7.882 7.882 0 0 0 3.096 2.347c1.449.675 2.988 1.142 4.485 1.682 1.248.449 2.986.911 3.53 2.278.642 1.604-.572 3.824-1.062 5.344-.244.747-2.1 5.203-.074 4.939 1.345-.175 1.516 1.687.287 2.018-1.474.404-2.859-.685-3.28-2.068-.54-1.758.365-3.684.894-5.339.307-.959.625-1.91.926-2.864.117-.372.39-.906.162-1.244-.227-.338-.733-.429-1.066-.562-1.491-.586-3-1.038-4.491-1.629-2.926-1.129-5.545-2.891-6.484-6.034-.543-1.811-.56-3.731-.709-5.6a657.08 657.08 0 0 1-.4-6.324c-.51-8.653-.424-17.301-.631-25.988-.048-2.003-.21-4.051-.086-6.047a5.387 5.387 0 0 1 2.289-4.134c2.551-1.894 5.846-2.197 8.911-1.851 4.342.487 8.625 1.996 12.854 3.11 2.895.764 7.786 1.291 8.762 4.757.174.629-.684 1.04-.956.398l-.027.044Z"/><path d="M76.993 194.685c-1.086 1.233-2.902.929-4.048-.098-1.47-1.315-1.39-3.578-1.166-5.378.127-.977.683-2.399.412-3.37-.27-.97-3.237-1.466-4.168-1.702a56.577 56.577 0 0 0-7.49-1.435 44.522 44.522 0 0 0-3.702-.315c-1.236-.056-2.792-.306-3.936.167-1.143.474-1.362 2.436-1.506 3.541a28.65 28.65 0 0 0-.273 4.146c-.036 5.378.725 10.818 1.178 16.171l.777 9.205c.128 1.469.114 2.941.163 4.411a17.73 17.73 0 0 1-.089 1.886c-.051.876.072 1.734.015 2.615-.026.2-.294.176-.335.003-.517-2.205-.755-4.478-1.132-6.717-.378-2.238-.455-4.538-.617-6.785-.362-4.531-.726-9.064-1.094-13.6-.349-4.226-.753-8.548.391-12.721.396-1.433.898-2.889 2.47-3.28 1.712-.425 3.849-.136 5.584-.02a38.64 38.64 0 0 1 6.939 1.06c1.102.284 2.197.62 3.278.991.5.18 1.039.37 1.551.567.717.277 1.735.89 2.503.849a.547.547 0 0 1 .56.318c.827 1.676.143 3.719.04 5.467-.101 1.748.93 4.385 3.146 3.263a.52.52 0 0 1 .581.755l-.032.006ZM54.066 225.723c.162 2.002 2.677 2.24 4.206 2.737 1.126.366 2.277.646 3.444.84.813.137 1.597.177 1.962.992a.473.473 0 0 1-.063.483c-.758.884-1.991.4-2.966.137a17.124 17.124 0 0 1-3.998-1.403c-1.38-.765-2.781-2.082-2.791-3.771.013-.103.159-.136.165-.026l.04.011Z"/><path d="M73.268 194.147c.327 1.506-.197 3.241-.488 4.714-.32 1.583-.637 3.173-.974 4.754a701.37 701.37 0 0 1-2.166 9.695 635.207 635.207 0 0 1-2.238 9.45c-.383 1.576-.77 3.145-1.168 4.719-.399 1.573-.603 3.506-1.375 4.942a.971.971 0 0 1-1.138.528.972.972 0 0 1-.715-1.03c.021-1.607.758-3.377 1.165-4.933.406-1.557.795-3.142 1.188-4.711.798-3.213 1.588-6.433 2.37-9.658.755-3.152 1.474-6.31 2.21-9.47.372-1.577.75-3.153 1.113-4.736.341-1.461.596-3.215 1.479-4.459a.426.426 0 0 1 .742.196l-.005-.001Z"/><path d="M63.82 231.57c1.644-.225 2.915.73 3.483 2.267.75 2.026-.114 4.292-.673 6.257a598.135 598.135 0 0 0-.963 3.387 6.477 6.477 0 0 1-1.268 2.709c-.925 1.009-3.055 1.51-3.717-.029a.693.693 0 0 1 .725-.951c.522.005.944.092 1.38-.238.434-.331.7-1.127.88-1.705.405-1.306.755-2.634 1.13-3.95.586-2.05 1.81-5.879-1.09-6.878a.462.462 0 0 1 .113-.874v.005ZM81.457 168.492a23 23 0 0 1-1.453 3.375 42.62 42.62 0 0 0-1.403 3.513 32.44 32.44 0 0 0-1.072 3.821c-.247 1.176-.217 2.627-.738 3.699a.672.672 0 0 1-1.076.203.673.673 0 0 1-.198-.369c-.283-1.202.222-2.746.51-3.927a36.102 36.102 0 0 1 1.091-3.84c.825-2.318 1.84-5.175 3.707-6.834a.413.413 0 0 1 .45-.026.412.412 0 0 1 .2.403l-.018-.018ZM151.693 182.091c-.098 2.078-1.03 3.896-1.831 5.793a42.376 42.376 0 0 0-2.128 6.517c-1.103 4.456-2.045 8.963-2.964 13.458-1.841 9.006-3.459 18.066-4.938 27.135-.741 4.575-1.437 9.157-2.014 13.754-.535 4.111-.928 8.288-2.304 12.196-2.481 7.02-9.227 11.911-15.858 14.712a37.519 37.519 0 0 1-17.662 2.875c-2.012-.163-4.102-.362-5.91-1.292a.825.825 0 0 1-.445-.965.827.827 0 0 1 .87-.61c1.722.02 3.376.439 5.091.594a34.26 34.26 0 0 0 5.175.115 36.05 36.05 0 0 0 10.26-2.062c6.494-2.348 13.577-6.819 16.211-13.485 1.472-3.723 1.783-7.758 2.396-11.708.688-4.436 1.375-8.873 2.104-13.314 1.435-8.698 3.112-17.364 4.953-26.009 1.046-4.865 2.108-9.733 3.307-14.563a55.759 55.759 0 0 1 1.974-6.537c.866-2.234 2.22-4.368 2.498-6.783.101-.781 1.234-.612 1.197.156l.018.023Z"/><path d="M61.804 246.177c.195 1.593.23 3.129.55 4.686a23.306 23.306 0 0 0 1.49 4.61 24.335 24.335 0 0 0 5.531 7.817c2.672 2.558 5.88 4.34 9.214 5.903 1.79.828 3.61 1.582 5.442 2.354 1.834.772 3.616 1.652 5.504 2.284 2.23.735 4.486 1.431 6.784 1.928a80.62 80.62 0 0 0 3.112.661c1.019.201 2.117.276 3.016.916a.697.697 0 0 1 .031 1.05.697.697 0 0 1-.352.173 5.746 5.746 0 0 1-2.513-.327 79.996 79.996 0 0 1-3.253-.946c-2.037-.611-4.08-1.211-6.096-1.87-4.07-1.335-8.085-2.563-11.983-4.299-3.503-1.553-6.996-3.345-9.863-5.929a24.225 24.225 0 0 1-5.745-8.065c-1.457-3.22-2.666-7.339-2.197-10.905a.706.706 0 0 1 1.141-.42.709.709 0 0 1 .245.412l-.058-.033ZM77.94 198.529a40 40 0 0 0 1.463 3.775 30.733 30.733 0 0 1 1.608 3.706.46.46 0 0 1-.786.457 12.798 12.798 0 0 1-2.041-3.428 39.494 39.494 0 0 1-1.516-3.975c-.273-.835.984-1.377 1.267-.536l.005.001ZM75.55 199.99c.44 1.311.937 2.599 1.46 3.879.564 1.16 1 2.379 1.298 3.634a.455.455 0 0 1-.802.34c-.858-1.031-1.327-2.409-1.754-3.667a55.577 55.577 0 0 1-1.156-3.924c-.144-.541.772-.798.954-.262ZM74.46 204.781a43.394 43.394 0 0 1 1.58 5.657.422.422 0 0 1-.306.444.422.422 0 0 1-.491-.224 42.52 42.52 0 0 1-1.579-5.656c-.103-.458.645-.664.797-.221ZM73.657 208.586l1.304 5.642c.394 1.713 1.051 3.612 1.038 5.361-.006.522-.731.516-.916.126-.734-1.585-.912-3.631-1.254-5.342l-1.14-5.662c-.127-.623.83-.744.97-.135l-.002.01ZM72.272 216.057c.72 2.215 1.322 4.462 1.966 6.699.313 1.086.616 2.171.92 3.256.135.482.266.965.385 1.45.126.62.21 1.247.253 1.878a.586.586 0 0 1-1.117.309 12.18 12.18 0 0 1-.732-1.522c-.18-.546-.344-1.09-.504-1.633a83.574 83.574 0 0 1-.893-3.299c-.572-2.269-1.114-4.524-1.488-6.836-.108-.693.991-1.031 1.214-.333l-.004.031ZM71.049 221.641c.077.01.76 2.435.869 2.799.35 1.122.653 2.254.97 3.388.574 2.055 1.371 4.202 1.352 6.358a.521.521 0 0 1-.38.442.52.52 0 0 1-.552-.192 15.402 15.402 0 0 1-1.487-4.03c-.414-1.559-.843-3.12-1.24-4.687-.23-.924-1.9-5.473.461-5.192.612.079.658 1.094.007 1.114ZM69.213 225.264a65.86 65.86 0 0 1 2.243 6.417c.555 2.001 1.46 4.371 1.25 6.466a.693.693 0 0 1-.592.573.694.694 0 0 1-.723-.394c-.992-1.812-1.167-4.281-1.649-6.282-.519-2.158-.96-4.348-1.53-6.471-.154-.584.803-.831 1.019-.28l-.018-.029ZM83.39 105.058c-1.395 6.701-3.1 13.331-4.438 20.045-.653 3.286-1.29 6.579-1.81 9.887-.277 1.725-.528 3.454-.81 5.178-.264 1.628-.36 3.371-.978 4.906a.705.705 0 0 1-1.336-.174c-.135-1.653.303-3.331.572-4.958.287-1.724.62-3.442.959-5.159.662-3.363 1.289-6.731 1.981-10.085 1.392-6.675 2.766-13.416 4.688-19.954.194-.649 1.3-.354 1.156.312l.016.002ZM73.25 149.681c-.637 4.893-1.52 9.701-2.574 14.513a253.589 253.589 0 0 1-1.629 6.974c-.573 2.319-1.054 4.885-1.906 7.178-.384 1.021-2.083.586-1.873-.51.444-2.326 1.27-4.622 1.878-6.916.63-2.384 1.236-4.772 1.815-7.164 1.138-4.728 2.276-9.455 3.379-14.193.13-.558.987-.478.91.118ZM56.51 185.784c-.625 2.992-1.213 5.988-1.828 8.981a155.179 155.179 0 0 0-.801 4.312c-.215 1.206-.095 3.014-1.357 3.597a.76.76 0 0 1-.781-.102c-1.045-.967-.4-2.555-.175-3.796.278-1.532.602-3.015.943-4.513a64.458 64.458 0 0 1 2.716-8.823c.262-.687 1.427-.4 1.272.343l.01.001ZM62.318 188.014a99.312 99.312 0 0 1-3.04 19.348c-.75 3.08-1.6 6.137-2.553 9.169-.468 1.507-1.002 3.006-1.388 4.523-.403 1.615-.348 3.153-.533 4.776-.1.765-1.323 1.014-1.595.21-.837-2.722.459-6.013 1.286-8.592a150.313 150.313 0 0 0 2.824-9.891c1.612-6.49 2.749-13.094 3.944-19.665a.52.52 0 0 1 .924-.249.519.519 0 0 1 .104.383l.027-.012ZM47.322 226.779c-.17 3.364-.905 6.676-1.613 9.95a185.673 185.673 0 0 1-1.088 4.703c-.344 1.397-.533 3.332-1.404 4.52a.57.57 0 0 1-1.01-.267c-.12-1.411.643-3.052 1.009-4.379.47-1.705.912-3.419 1.328-5.142.762-3.167 1.352-6.372 2.28-9.492.09-.286.493-.134.505.134l-.007-.027Z"/><path d="M14.917 212.511c5.115 5.516 9.874 11.393 14.6 17.234 2.37 2.921 4.72 5.866 7.07 8.801a743.372 743.372 0 0 1 3.524 4.41c1.11 1.393 2.39 2.72 3.062 4.386a.518.518 0 0 1-.814.631c-1.462-1.053-2.452-2.608-3.555-4.011l-3.506-4.423a597.945 597.945 0 0 0-7.11-8.765c-4.763-5.815-9.65-11.557-14.229-17.53-.483-.627.436-1.297.959-.738l-.001.005ZM12.603 217.959c5.179 5.508 9.525 11.865 14.106 17.87a1443.89 1443.89 0 0 1 6.811 8.982c2.23 2.945 4.267 6 6.533 8.908a25.974 25.974 0 0 0 3.56 3.924 12.302 12.302 0 0 0 4.654 2.356c.863.274.431 1.545-.396 1.474-2.864-.236-5.413-2.58-7.24-4.6-2.444-2.743-4.467-5.834-6.822-8.659-4.968-5.998-9.548-12.375-14.254-18.579-2.715-3.588-5.5-7.128-7.836-10.981a.538.538 0 0 1-.04-.601.55.55 0 0 1 .328-.253.537.537 0 0 1 .571.192l.025-.033Z"/><path d="M12.056 216.869c.677 3.642 1.55 7.244 2.614 10.792.501 1.691 1.04 3.366 1.57 5.044.404 1.27.807 3.559 2.17 4.171l-1.045.277c.574-.757.688-1.756 1.326-2.441.345-.363 1.1-.426 1.285.167.361 1.239-.433 2.405-1.208 3.339a.91.91 0 0 1-1.044.272c-1.541-.77-2.283-1.98-2.838-3.573a91.752 91.752 0 0 1-1.843-5.915c-1.151-4.049-1.916-7.927-1.608-12.141.048-.37.568-.349.638-.006l-.017.014Z"/><path d="M26.673 241.928c-1.707-.499-3.396-1.011-5.13-1.43a64.307 64.307 0 0 0-2.43-.562c-.814-.169-1.397-.182-1.976-.874a.887.887 0 0 1 .352-1.339c.776-.422 1.507-.133 2.325.041.82.175 1.687.371 2.535.602 1.741.46 3.451 1.031 5.119 1.711 1.224.51.432 2.22-.765 1.86l-.03-.009ZM206.334 140.553a6.651 6.651 0 0 1-.023 2.265 69.115 69.115 0 0 1-.414 2.298 29.543 29.543 0 0 1-1.09 4.562.807.807 0 0 1-.922.403.806.806 0 0 1-.592-.815c.257-1.534.74-3.039 1.059-4.565.148-.692.28-1.385.407-2.085.117-.754.34-1.489.661-2.182a.514.514 0 0 1 .774-.122.516.516 0 0 1 .161.244l-.021-.003ZM196.225 179.4c-.308 2.369-1.186 4.737-1.82 7.038-.634 2.3-1.34 4.675-2.011 7.018-1.367 4.745-2.73 9.492-4.091 14.242-2.723 9.498-5.454 18.994-8.191 28.487l-4.653 16.155c-.315 1.093-1.949.4-1.635-.688a67210.96 67210.96 0 0 1 16.359-56.508 6109.63 6109.63 0 0 0 2.34-8.058c.765-2.628 1.375-5.512 2.525-7.996a.614.614 0 0 1 1.073-.095.616.616 0 0 1 .103.415l.001-.01ZM192.269 173.095c-1.087 6.427-2.659 12.839-4.336 19.143-1.709 6.425-2.432 13.062-3.458 19.618a.45.45 0 0 1-.889-.115c.686-6.637 2.132-13.165 3.094-19.755a85.638 85.638 0 0 1 4.923-19.072.346.346 0 0 1 .661.18l.005.001Z"/><path d="M176.705 250.156a137.21 137.21 0 0 1 20.251 13.61 114.76 114.76 0 0 1 9.035 7.798c2.314 2.303 3.82 5.148 2.914 8.453-2.068 7.534-11.259 8.569-17.762 9.024-8.481.595-16.99-.121-25.442-.797a2072.514 2072.514 0 0 1-53.026-4.968c-8.37-.901-16.76-1.962-24.854-4.348a65.57 65.57 0 0 1-18.895-9.013 67.71 67.71 0 0 1-24.463-30.605 62.608 62.608 0 0 1-1.626-4.69c-.399-1.312 1.587-2.151 1.975-.836a65.386 65.386 0 0 0 20.799 31.488 63.725 63.725 0 0 0 16.34 9.845c7.442 3.059 15.387 4.616 23.332 5.65 8.253 1.116 16.559 1.91 24.842 2.752 8.4.857 16.806 1.667 25.219 2.431 8.265.741 16.583 1.636 24.903 1.919 4.144.18 8.294.1 12.428-.238 3.701-.334 7.79-.747 11.029-2.787 2.846-1.794 5.091-5.39 3.863-8.805-.621-1.727-1.966-3.084-3.298-4.292-1.332-1.208-2.816-2.457-4.229-3.649a174.394 174.394 0 0 0-19-13.667c-1.667-1.043-3.322-2.1-5.003-3.118-.644-.392.006-1.531.674-1.162l-.006.005Z"/><path d="M209.583 277.179c2.788 6.08 1.657 13.083-1.257 18.891-3.336 6.642-8.563 12.348-13.34 17.972-1.854 2.199-5.268 5.063-8.316 3.182a.213.213 0 0 1 .027-.34.209.209 0 0 1 .126-.032 5.303 5.303 0 0 0 3.304-.093 9.268 9.268 0 0 0 2.524-1.762c1.506-1.372 2.739-3.098 4.036-4.669 2.719-3.305 5.5-6.517 7.891-10.037 4.442-6.54 7.596-15.071 4.24-22.778a.417.417 0 0 1 .217-.546.42.42 0 0 1 .319-.005.42.42 0 0 1 .228.222l.001-.005ZM185.017 310.047c.827 1.676 1.657 4.015 1.161 5.9a.519.519 0 0 1-1.015.004c-.168-.874-.074-1.802-.172-2.693a17.086 17.086 0 0 0-.602-2.927.344.344 0 1 1 .636-.262l-.008-.022ZM183.796 311.315c-6.214.085-12.48-.479-18.693-.927-6.312-.451-12.619-.942-18.918-1.532-6.154-.577-12.293-1.313-18.416-2.094-6.123-.781-12.175-1.783-18.273-2.551a30.503 30.503 0 0 0-8.303-.129c-2.842.43-5.144 1.813-7.739 2.923-4.826 2.068-10.428 1.658-15.408.372-9.9-2.553-18.224-9.072-24.583-16.908-7.819-9.635-12.9-21.344-17.253-32.875-.529-1.402 1.564-2.3 2.145-.907 4.234 10.12 8.036 20.497 14.324 29.562 5.785 8.357 13.837 15.551 23.607 18.793 4.804 1.597 10.545 2.496 15.447.808 2.474-.854 4.662-2.33 7.187-3.02a23.806 23.806 0 0 1 7.713-.596c5.816.365 11.614 1.554 17.388 2.326 6.126.797 12.26 1.529 18.403 2.196 6.877.728 13.753 1.461 20.646 1.987 6.892.526 13.82.701 20.676 1.432.612.079.647 1.129.007 1.114l.043.026Z"/><path d="M46.942 262.309a.114.114 0 0 1-.055-.203.112.112 0 0 1 .084-.023c.03.004.058.02.076.043a.116.116 0 0 1 .023.085.112.112 0 0 1-.044.075.112.112 0 0 1-.084.023Z"/><path d="M50.16 253.969a2.694 2.694 0 0 1 1.245-2.504c.528-.323 1.369.126 1.045.805l-4.206 8.708a41.11 41.11 0 0 0-1.843 3.999 6.467 6.467 0 0 0 .175 4.799c1.953 4.754 6.431 8.373 10.696 10.977 4.634 2.83 9.75 4.833 14.796 6.781a279.837 279.837 0 0 0 17.22 5.988 254.872 254.872 0 0 0 113.814 8.913c1.252-.182 1.521 1.766.271 1.937a261.608 261.608 0 0 1-75.806-.318 278.392 278.392 0 0 1-36.617-8.089c-6.097-1.776-12.106-3.875-18.011-6.165-5.305-2.049-10.67-4.158-15.6-7.026-4.86-2.822-9.8-6.742-12.143-12.033a8.72 8.72 0 0 1-.823-4.235c.137-1.733.954-3.315 1.747-4.827 1.697-3.322 3.397-6.642 5.1-9.961l.894.89a1.956 1.956 0 0 0-1.015 1.331c-.097.468-.893.558-.91.007l-.03.023Z"/><path d="M201.198 298.038a365.174 365.174 0 0 1-50.751-.402c-4.834-.368-9.698-.776-14.479-1.592a.39.39 0 0 1 .1-.766c8.387.569 16.748 1.543 25.146 2.029 8.507.491 17.03.738 25.536.554 4.786-.102 9.57-.249 14.35-.442.4-.021.494.587.087.617l.011.002ZM123.099 295.137c-11.789-1.45-23.634-3.598-35.037-6.974-10.476-3.109-20.638-7.39-29.792-13.426a82.098 82.098 0 0 1-13.827-11.175c-.876-.898.68-2.096 1.55-1.194 7.388 7.688 16.136 13.598 25.775 18.119 10.162 4.756 21.055 7.997 32.005 10.353 6.44 1.361 12.938 2.468 19.413 3.634a.337.337 0 0 1-.087.663ZM174.393 253.905c-5.982.267-11.92.194-17.9-.077-5.98-.271-12.133-.534-18.138-1.174-1.1-.143-.865-1.754.22-1.696 5.979.318 11.949.87 17.93 1.173 5.981.303 11.942.598 17.902 1.029.411.053.428.724.001.747l-.015-.002Z"/><path d="M175.38 252.67a22.703 22.703 0 0 1 5.561 2.401 61.785 61.785 0 0 1 4.927 2.983 59.215 59.215 0 0 1 9.305 7.691 56.824 56.824 0 0 1 4.151 4.768c1.135 1.434 2.226 2.971 2.715 4.759.914 3.255-.707 6.592-3.194 8.715-3.004 2.561-7.043 3.123-10.851 3.066-4.641-.081-9.28-.654-13.903-1.031-9.692-.785-19.381-1.67-29.062-2.575-5.426-.513-10.828-1.132-16.264-1.766-2.704-.314-5.41-.637-8.115-.968-2.76-.359-5.62-.512-8.316-1.202a.645.645 0 0 1-.277-1.128.653.653 0 0 1 .444-.152c2.283.123 4.556.38 6.809.771l6.793.884c4.532.569 9.068 1.111 13.607 1.625 9.08 1.025 18.151 2.044 27.256 2.8 4.482.374 8.962.727 13.459.989 4.124.233 8.367.843 12.473.055 3.625-.672 7.425-3.042 8.239-6.892.815-3.85-2.522-7.242-4.953-9.764a71.34 71.34 0 0 0-9.899-8.752 58.607 58.607 0 0 0-5.512-3.502c-1.881-1.05-3.879-1.88-5.68-3.06a.41.41 0 0 1-.146-.221.419.419 0 0 1 .191-.465.415.415 0 0 1 .26-.053l-.018.024Z"/><path d="M188.815 279.781c-5.838.285-11.676.372-17.517.113-2.9-.126-5.797-.313-8.691-.561-3.008-.261-6.123-.421-9.067-1.086a.518.518 0 1 1 .134-1.028c2.884.125 5.776.632 8.656.907 2.88.276 5.78.486 8.676.638a240.33 240.33 0 0 0 17.73.296c.446-.01.56.679.097.702l-.018.019ZM182.43 271.623c-5.996.092-11.971.104-17.972-.171-3.002-.139-6.009-.29-9.007-.539-1.458-.122-2.916-.286-4.374-.444a35.966 35.966 0 0 1-4.795-.624c-.583-.139-.719-1.139-.006-1.156 2.944-.14 6.011.307 8.956.491 2.944.185 5.999.447 8.999.649 6.058.391 12.125.794 18.191 1.05.431.02.424.756.005.764l.003-.02ZM177.847 264.755c-3.481-.004-6.958.009-10.444-.064l-5.099-.099a32.372 32.372 0 0 1-5.289-.317.372.372 0 0 1-.214-.126.361.361 0 0 1-.085-.233.365.365 0 0 1 .294-.363c1.66-.155 3.33-.175 4.993-.061 1.772.037 3.54.111 5.309.168 3.539.111 7.068.304 10.604.482.411.016.311.62-.08.616l.011-.003ZM174.726 258.333c-2.718.002-5.445.034-8.161-.017-1.321-.01-2.644-.041-3.964-.061-1.319-.02-2.857.151-4.157-.185a.554.554 0 0 1-.444-.537.548.548 0 0 1 .438-.541c1.255-.244 2.621-.056 3.901-.015 1.396.036 2.788.06 4.167.104 2.779.09 5.561.242 8.315.361.572.027.436.866-.113.868l.018.023ZM150.965 259.443a39.115 39.115 0 0 1-10.461-1.1c-.611-.163-.27-1.013.268-1.011 1.718.051 3.4.338 5.103.539 1.704.201 3.393.353 5.084.609.514.067.568.942.008.947l-.002.016ZM195.931 272.131c-2.684.257-5.739.444-8.297-.5-.499-.185-.239-.857.231-.853 2.662.022 5.276.54 7.953.45.578-.024.726.847.128.905l-.015-.002ZM197.639 278.964a61.012 61.012 0 0 1-5.593-.158.289.289 0 0 1-.253-.287.285.285 0 0 1 .07-.191.294.294 0 0 1 .18-.098 60.303 60.303 0 0 1 5.591-.155c.521.01.507.881.005.889ZM145.504 276.265c-2.616.021-5.232.041-7.83-.073-2.598-.113-5.257-.161-7.729-.844-.439-.125-.31-.834.114-.878 2.503-.239 5.088.139 7.587.292 2.622.174 5.234.383 7.858.5.555.031.571.989.006.994l-.006.009ZM140.38 271.982a45.247 45.247 0 0 0-4.347-.89c-1.357-.213-2.805-.25-4.096-.648-.549-.165-.343-.943.133-1.028 2.754-.514 6.042.562 8.642 1.423.637.208.35 1.326-.312 1.156l-.02-.013ZM149.343 264.275a172.068 172.068 0 0 0-6.274-.582 70.312 70.312 0 0 0-3.033-.149c-1.01-.027-2.014.094-2.975-.188a.641.641 0 0 1 .001-1.171 9.023 9.023 0 0 1 2.95-.139c1.01.031 2.021.088 3.035.171 2.166.168 4.318.493 6.437.973a.542.542 0 0 1-.14 1.074l-.001.011ZM187.195 264.403c-2.624.082-5.256.226-7.861-.113a.3.3 0 0 1-.001-.596c2.614-.371 5.226-.245 7.864-.194.522.01.522.893.003.904l-.005-.001ZM232.155 119.805c-8.654.09-17.307-.265-25.924-1.064-4.363-.369-8.719-.873-13.063-1.386-4.344-.513-8.773-.855-12.997-1.927a.268.268 0 0 1-.086-.436.272.272 0 0 1 .153-.078c4.357.212 8.711 1.05 13.047 1.547 4.336.496 8.571.843 12.869 1.188 8.653.693 17.327 1.022 25.998 1.456.405.021.43.714 0 .721l.003-.021ZM168.205 114.21c-23.066-1.544-45.942-8.404-66.217-19.42a151.632 151.632 0 0 1-8.083-4.71c-2.762-1.709-5.833-3.373-8.191-5.65-.39-.38-.056-1.178.518-.894 2.529 1.254 4.827 3.069 7.19 4.594 2.362 1.525 4.878 2.992 7.377 4.388a171.882 171.882 0 0 0 15.349 7.632 167.984 167.984 0 0 0 32.823 10.579 188.77 188.77 0 0 0 19.305 2.936c.359.047.287.56-.073.56l.002-.015ZM201.406 82.654c3.367.39 4.349 5.452 4.015 8.137a8.313 8.313 0 0 1-5.87 7.075c-2.998.828-6.489-.458-8.033-3.209-1.773-3.163-.788-7.153 1.289-9.903 1.1-1.425 2.558-2.913 4.379-3.365a6.736 6.736 0 0 1 5.686 1.08c.718.584.043 1.876-.843 1.458-1.583-.766-3.262-1.355-4.998-.625-1.405.59-2.339 2.591-3.071 3.839-1.599 2.729-2.147 6.655.915 8.627 2.812 1.808 6.517.284 8.06-2.463 1.544-2.747 1.319-7.918-1.878-9.421a.634.634 0 0 1-.358-.749.633.633 0 0 1 .684-.469l.023-.012ZM214.646 86.53a12.637 12.637 0 0 0-3.953 4.352 3.624 3.624 0 0 0-.266 3.33c.347.83.876 1.572 1.546 2.172 2.557 2.24 6.82 2.053 8.448-1.184 1.419-2.873.125-6.339-2.49-8.054a3.844 3.844 0 0 0-5.22.638 7.255 7.255 0 0 0-1.26 2.37c-.3.86-.389 1.784-.857 2.57-.167.281-.632.121-.667-.176-.186-1.618.704-3.76 1.601-5.07.897-1.31 2.403-2.4 4.016-2.466 3.377-.125 6.798 2.74 7.59 5.926a7.509 7.509 0 0 1-3.851 8.472c-3.526 1.71-7.531-.04-9.405-3.272a5.349 5.349 0 0 1-.077-5.629 13.063 13.063 0 0 1 4.477-4.445c.313-.194.669.244.358.465l.01.002ZM182.285 79.429c4.017 2.18 4.845 7.55 3.429 11.562-.819 2.276-2.46 4.284-4.855 4.934a7.835 7.835 0 0 1-6.359-1.173c-4.103-2.807-4.331-9.004-1.663-12.843a9.101 9.101 0 0 1 5.97-3.863c2.549-.353 4.961.99 6.491 2.966a9.125 9.125 0 0 1 1.57 8.012 16 16 0 0 1-2.308 4.404c-.742 1.084-1.46 2.344-2.754 2.808a.46.46 0 0 1-.355-.846c.935-.474 1.427-1.486 1.943-2.36a19.851 19.851 0 0 0 1.717-3.435 8.058 8.058 0 0 0-.109-6.024c-.86-1.946-2.594-3.64-4.767-3.934a5.939 5.939 0 0 0-5.591 2.325c-2.317 3.027-2.688 7.803-.051 10.754a6.177 6.177 0 0 0 4.996 2.009c2.112-.17 3.664-1.614 4.526-3.456 1.685-3.633 1.107-8.51-2.393-10.848-.529-.35.001-1.29.571-.97l-.008-.022ZM158.887 73.572c3.166 1.332 4.972 5.12 5.001 8.396.028 3.275-1.738 7.613-5.373 8.352-3.011.607-7.43-.653-9.235-3.25-2.178-3.142-.608-7.13 1.542-9.797 1.245-1.532 2.526-2.906 4.533-3.304a7.877 7.877 0 0 1 5.448.903.52.52 0 0 1-.359.873c-1.699-.363-3.493-1.27-5.218-.429-.822.416-1.366 1.223-1.961 1.898a24.265 24.265 0 0 0-1.675 2.108c-1.078 1.537-1.933 3.407-1.562 5.3.343 1.78 1.777 2.844 3.378 3.476 1.601.631 3.771 1.144 5.415.553 1.827-.661 2.91-2.72 3.375-4.484a8.778 8.778 0 0 0-.433-5.71c-.754-1.714-1.973-2.87-3.326-4.118a.449.449 0 0 1-.1-.574.45.45 0 0 1 .55-.193ZM179.147 100.933l-1.069-.222c-.123-.017-.951-.124-.987-.249l.267-.164-.038.293-.067.514c-.051.396-.076.79-.118 1.187l-.422-.771c.214.044.435.034.644-.03.208-.065.397-.181.548-.338.52-.376.808-.747 1.5-.557a.698.698 0 0 1 .45.555c.11.845-.877 1.359-1.538 1.655a2.659 2.659 0 0 1-2.157.069.756.756 0 0 1-.447-.779l.219-1.68a1.42 1.42 0 0 1 .625-1.23 1.514 1.514 0 0 1 1.204.067c.564.199 1.104.468 1.653.707.549.238.319 1.086-.263.979l-.004-.006ZM195.163 101.429c.017.828-.047 1.807-.872 2.243-.663.353-1.694.161-1.727-.747a.45.45 0 0 1 .796-.335l.129.016s.186.056.108.014a.366.366 0 0 0 .304-.054c.323-.23.315-.853.339-1.194.036-.518.917-.54.931-.005l-.008.062Z"/><path d="M194.566 101.717a.64.64 0 0 0-.813.302.636.636 0 0 0-.049.375c.083.283.088.584.013.869-.109.357-.536.422-.834.341-1.035-.281-.799-1.891-.269-2.507a2.032 2.032 0 0 1 2.429-.551.634.634 0 0 1-.492 1.169l.015.002ZM202.095 102.174l-.242 1.855a.66.66 0 0 1-.296.466.672.672 0 0 1-.972-.26.666.666 0 0 1-.024-.551 68.86 68.86 0 0 1 .554-1.773c.192-.587 1.042-.293.975.263h.005Z"/><path d="M201.587 102.338c-.496-.2-1.777-.597-1.999.226-.195.696.784.802 1.209.947.842.282.568 1.5-.212 1.634a2.236 2.236 0 0 1-2.464-1.855 2.227 2.227 0 0 1 .102-1.118c.648-1.525 2.534-1.363 3.748-.693a.468.468 0 1 1-.363.862l-.021-.003ZM216.969 104.335c-.327.44-.558.944-.678 1.48a4.866 4.866 0 0 1-.268 1.376.409.409 0 0 1-.32.241.403.403 0 0 1-.371-.153c-.69-1.041.197-2.677.895-3.506a.477.477 0 0 1 .307-.145.47.47 0 0 1 .433.722l.002-.015Z"/><path d="m216.024 104.212-1.421-.368a2.357 2.357 0 0 1-.44-.151c-.124.072-.202.585-.241.726-.096.296-.463 1.111-.294 1.42.11.192.151.082.36-.037.191-.117.408-.186.632-.2a.773.773 0 0 1 .405 1.469c-.754.326-1.56.66-2.262.03s-.57-1.564-.313-2.372c.217-.666.483-1.865 1.265-2.088.781-.222 1.841.428 2.548.693.469.176.267 1.006-.239.878ZM158.256 95.366a4.297 4.297 0 0 1-.003 1.986.803.803 0 0 1-.667.67.519.519 0 0 1-.591-.155.755.755 0 0 1-.299-.718 4.466 4.466 0 0 1 .804-1.881c.191-.221.653-.24.751.097l.005.001Z"/><path d="M157.115 95.615a.61.61 0 0 0-.674-.036.86.86 0 0 0-.303.64c-.003.121.002.242.015.363.01.053.032.102.065.144-.213-.09-.259-.133-.13-.121.129.011.574.001.787.013a.763.763 0 0 1 .652.853 1.22 1.22 0 0 1-.79.969 1.49 1.49 0 0 1-1.377-.216 2.153 2.153 0 0 1-.775-2.076 2.07 2.07 0 0 1 1.258-1.634 1.743 1.743 0 0 1 1.867.305.515.515 0 0 1 .001.644.52.52 0 0 1-.626.148l.03.004ZM152.015 94.209l-.162 1.243c-.063.484-.067.833-.544 1.085a.557.557 0 0 1-.661-.175c-.318-.413-.123-.785.014-1.232.136-.447.234-.795.353-1.192.176-.584 1.086-.314 1.01.272l-.01-.001Z"/><path d="m151.017 94.445-.776-.101c-.118-.016-.504-.144-.575-.075.24-.157.022.227.011.273a1.642 1.642 0 0 0-.061.473c-.001.57.349.568.768.523a.861.861 0 0 1 .79 1.357 1.591 1.591 0 0 1-2.165.21 2.171 2.171 0 0 1-.967-1.882c.007-.772.317-1.51.863-2.056.661-.542 1.713.05 2.405.276.587.186.319 1.123-.273 1.01l-.02-.008ZM158.451 81.338a10.35 10.35 0 0 1-1.443-.114c-.555-.072-1.115-.145-1.338-.723a.792.792 0 0 1 .237-.9c.452-.463 1.033-.189 1.572-.03.457.136.905.303 1.341.499a.672.672 0 0 1 .363.783.666.666 0 0 1-.712.488l-.02-.003ZM157.916 85.93c-.867-.207-2.426-.315-2.825-1.22a.722.722 0 0 1 .224-.838c.838-.58 2.177.137 3.043.428.867.29.5 1.858-.442 1.63ZM170.19 86.833c.313 1.389.705 2.759 1.174 4.103.377 1.126.994 2.283 1.116 3.475a.36.36 0 0 1-.215.369.36.36 0 0 1-.416-.101c-.738-.99-1.018-2.333-1.303-3.52a36.147 36.147 0 0 1-.719-4.274.18.18 0 0 1 .035-.132.165.165 0 0 1 .052-.045.173.173 0 0 1 .134-.019.176.176 0 0 1 .131.147l.011-.003ZM64.89 9.604a14.469 14.469 0 0 1 2.328 5.64.384.384 0 0 1-.726.203c-.814-1.784-1.589-3.578-2.473-5.334-.262-.515.55-.974.87-.509ZM67.176 9.745c1.313 2.481 2.855 5.133 3.538 7.872.062.248-.294.296-.4.11-1.41-2.463-2.34-5.239-3.607-7.787-.145-.295.318-.48.47-.194ZM70.157 8.968a80.748 80.748 0 0 1 2.307 5.646c.628 1.76 1.418 3.676 1.624 5.548a.332.332 0 0 1-.634.173c-.816-1.758-1.22-3.754-1.85-5.587a95.411 95.411 0 0 0-2.064-5.495.333.333 0 1 1 .614-.26l.003-.025ZM74.32 12.64c.888 2.896 2.075 5.862 2.553 8.856a.244.244 0 0 1-.349.253.243.243 0 0 1-.118-.126c-1.207-2.77-1.813-5.859-2.634-8.751-.099-.363.433-.597.553-.232h-.005ZM77.654 13.848l1.242 4.07.561 1.83c.029.102.564 2.053.149 1.827a.183.183 0 0 1-.105-.165.181.181 0 0 1 .106-.164l.05-.02a.202.202 0 0 1 .263.108.31.31 0 0 1-.05.375.238.238 0 0 1-.231.095c-.885-.23-.997-1.938-1.22-2.667l-1.424-5.13c-.096-.341.495-.505.597-.167l.062.008ZM78.938 16.47a23.185 23.185 0 0 1-.465-2.573c-.086-.466.556-.581.76-.21.704 1.45 1.3 2.949 1.782 4.486.49 1.386 1.128 2.864 1.28 4.348a.374.374 0 0 1-.705.195c-.665-1.361-.976-2.944-1.475-4.373-.498-1.428-1.153-2.862-1.615-4.328h.726a4.503 4.503 0 0 0 .12 2.368c.054.232-.337.343-.411.108l.003-.02ZM83.72 17.433c.745 2.302 1.53 4.584 2.103 6.932.073.318-.437.466-.543.154-.874-2.204-1.528-4.521-2.25-6.8-.14-.452.53-.746.68-.287l.01.001ZM85.57 18.803c.236 1.103.413 2.218.531 3.34.033.313-.466.494-.543.16a34.505 34.505 0 0 1-.761-3.387c-.088-.534.696-.61.793-.11l-.02-.003ZM151.629 133.47a29.11 29.11 0 0 1-1.355 5.478.289.289 0 0 1-.336.165.286.286 0 0 1-.21-.309 28.733 28.733 0 0 1 1.043-5.446c.129-.506.967-.444.858.112ZM154.159 136.083c-.124 1.75-.243 3.71-.972 5.335a.338.338 0 0 1-.641-.173c.14-1.758.686-3.501.919-5.253a.353.353 0 0 1 .607-.144.361.361 0 0 1 .087.235ZM158.556 135.782c-.519 1.542-.665 3.227-1.238 4.736-.128.339-.739.296-.745-.097-.035-1.624.714-3.44 1.29-4.933.179-.452.847-.161.693.294ZM165.616 138.357a18.304 18.304 0 0 1-.513 2.818 10.528 10.528 0 0 1-.653 2.529c-.192.393-.93.401-.946-.123.043-.934.206-1.857.483-2.749.164-.922.399-1.83.704-2.715a.484.484 0 0 1 .566-.257.49.49 0 0 1 .358.508l.001-.011ZM168.687 139.5a885.6 885.6 0 0 0-.697 3.468 16.302 16.302 0 0 1-.75 3.148.408.408 0 0 1-.704.058.41.41 0 0 1-.073-.269 17.48 17.48 0 0 1 .669-3.258c.262-1.084.517-2.164.774-3.249.118-.507.884-.408.781.102ZM173.014 139.54c-.27 2.798-.988 5.662-2.54 8.031-.196.304-.611-.001-.515-.302.821-2.61 1.714-5.139 2.177-7.848a.443.443 0 0 1 .49-.337.448.448 0 0 1 .281.151.44.44 0 0 1 .107.3v.005ZM203.446 141.227c-.097 1.948-.521 4.281-1.522 5.985-.186.31-.682.063-.634-.266.209-.996.478-1.978.806-2.942.268-.973.491-1.963.774-2.935.098-.348.591-.159.576.158ZM201.703 140.844c-.258 1.498-.365 3.245-.956 4.652a.345.345 0 0 1-.17.163.351.351 0 0 1-.497-.338c.05-1.504.676-3.106 1.07-4.565.091-.338.618-.296.555.072l-.002.016ZM199.71 141.379a7.763 7.763 0 0 0-.388 1.256 5.31 5.31 0 0 1-.231 1.13.348.348 0 0 1-.556.106.357.357 0 0 1-.102-.192c-.059-.449 0-.906.173-1.326.148-.445.353-.87.609-1.264.172-.28.606-.004.485.288l.01.002ZM197.988 142.001a.127.127 0 0 1-.086-.139.125.125 0 0 1 .039-.078.133.133 0 0 1 .08-.035.131.131 0 0 1 .086.14.127.127 0 0 1-.119.112ZM182.117 152.395a10.726 10.726 0 0 0-1.869 6.331c.062 2.255.864 4.121 2.008 6.01a.58.58 0 0 1-.106.817.579.579 0 0 1-.817-.106c-3.128-3.71-2.59-9.812.19-13.506.283-.371.828.061.57.44l.024.014ZM177.798 155.381a16.305 16.305 0 0 0-.485 3.731c-.018 1.262.244 2.499.239 3.747-.007.412-.643.439-.777.108-.904-2.37-.222-5.401.559-7.709.084-.245.54-.134.449.121l.015.002ZM205.688 179.372c.3 2.271-.328 4.604-.074 6.91.105.999.328 1.983.664 2.929.416.951.903 1.868 1.456 2.746.24.444-.416.949-.784.603-1.494-1.407-2.117-3.808-2.33-5.786-.251-2.332-.246-5.258.646-7.457a.22.22 0 0 1 .095-.107.22.22 0 0 1 .268.035.22.22 0 0 1 .064.128l-.005-.001ZM203.431 179.203a34.379 34.379 0 0 0-.374 4.357c-.054 1.425.174 2.96-.045 4.364-.049.375-.67.529-.793.111-.387-1.284-.229-2.857-.133-4.199.163-1.591.456-3.166.874-4.709.072-.31.557-.262.514.066l-.043.01ZM201.041 178.976c-.481 1.37-.351 2.698-.535 4.112a.333.333 0 0 1-.486.236.335.335 0 0 1-.142-.151c-.506-1.451-.001-3.083.627-4.418a.303.303 0 0 1 .38-.128.304.304 0 0 1 .154.148.304.304 0 0 1 .016.214l-.014-.013ZM199.676 176.98c-.718 1.176-.775 2.454-1.182 3.734a.208.208 0 0 1-.376-.002c-.487-1.432.247-2.941 1.083-4.102.23-.321.674.045.475.37ZM198.069 174.91a12.458 12.458 0 0 0-.474 1.872c-.021.503-.186.99-.475 1.402a.28.28 0 0 1-.114.084c-.044.017-.092.023-.14.017a.27.27 0 0 1-.13-.053.273.273 0 0 1-.089-.11c-.492-1.036.428-2.521.902-3.431a.285.285 0 0 1 .455.046.29.29 0 0 1 .039.17l.026.003ZM207.637 159.615a9.688 9.688 0 0 0-3.307 2.12 15.225 15.225 0 0 0-2.097 2.983c-.133.218-.434.001-.364-.215.78-2.459 3.319-4.339 5.653-5.164.181-.066.297.206.115.276ZM195.526 147.064a22.477 22.477 0 0 0-2.53.005 7.073 7.073 0 0 1-2.059.077.293.293 0 0 1-.218-.24.295.295 0 0 1 .141-.293c.678-.387 1.609-.313 2.352-.321.8.011 1.598.083 2.386.217a.291.291 0 0 1 .117.498.292.292 0 0 1-.191.072l.002-.015ZM84.122 92.281c-.214 3.49.432 6.803 1.417 10.114a.3.3 0 0 1-.163.389.3.3 0 0 1-.228 0 .3.3 0 0 1-.161-.162c-1.557-3.219-1.89-6.925-1.458-10.439a.295.295 0 0 1 .586.076l.007.022ZM86.298 93.594c.416 1.544.804 3.1 1.106 4.67.361 1.447.56 2.93.596 4.421-.013.379-.537.311-.623.002-.386-1.451-.44-3.046-.674-4.535a75.925 75.925 0 0 0-.852-4.496c-.063-.285.372-.333.447-.062ZM89.454 94.324a58.264 58.264 0 0 0 1.253 6.434c.53 2.108 1.343 4.131 1.837 6.239.088.372-.431.467-.586.164-1.064-1.858-1.61-4.009-2.093-6.084a39.64 39.64 0 0 1-.915-6.662.268.268 0 0 1 .532-.067l-.028-.024ZM91.837 96.129l1.71 4.926c.504 1.513 1.197 3.098 1.457 4.673a.332.332 0 0 1-.63.175c-.707-1.472-1.058-3.227-1.524-4.792-.465-1.566-.924-3.256-1.392-4.843-.076-.256.296-.422.382-.165l-.003.026ZM96.698 98.773a69.76 69.76 0 0 0 2.13 7.129c.803 2.221 1.969 4.38 2.631 6.645.096.342-.339.677-.567.339-1.394-1.974-2.2-4.54-2.954-6.813a58.107 58.107 0 0 1-1.885-7.206c-.086-.424.588-.498.66-.092l-.015-.002ZM101.769 104.743c.624 2.276 1.43 4.592 1.752 6.938.035.256-.352.378-.444.12-.833-2.235-1.216-4.673-1.745-6.995-.063-.28.361-.324.437-.063ZM99.987 98.642c.17 1.215.417 2.419.738 3.603.063.275-.338.348-.45.124a9.44 9.44 0 0 1-.948-3.635.333.333 0 1 1 .66-.092ZM105.948 102.068a19.93 19.93 0 0 1 .676 3.317c.011.2-.288.323-.368.099a20.469 20.469 0 0 1-.606-3.377c-.032-.192.26-.227.298-.039ZM106.227 107.633c.976 1.737 1.942 4.032 1.824 6.06a.324.324 0 0 1-.278.266.326.326 0 0 1-.338-.185c-.4-.945-.532-1.982-.839-2.952a43.633 43.633 0 0 0-1.064-2.908c-.182-.447.444-.679.669-.284l.026.003ZM109.993 107.69c.139 1.418.347 2.835.549 4.252.016.117-.169.177-.211.056a16.904 16.904 0 0 1-.75-4.278c-.012-.263.388-.326.415-.056l-.003.026ZM109.625 117.179c1.009 1.804 2.167 4.03 2.276 6.129.009.21-.294.328-.379.102-.393-1.002-.575-2.087-.928-3.11a24.604 24.604 0 0 0-1.289-2.985c-.11-.202.215-.332.32-.136ZM109.607 119.607c.685 2.248 1.543 4.529 1.84 6.867a.164.164 0 0 1-.116.169.162.162 0 0 1-.188-.084c-.963-2.153-1.414-4.553-1.997-6.823-.065-.26.38-.39.461-.129ZM109.339 122.029c.934 2.421 1.934 5.216 2.006 7.838a.238.238 0 0 1-.382.222.241.241 0 0 1-.092-.158c-.326-1.229-.457-2.505-.744-3.755a36.157 36.157 0 0 0-1.185-3.985c-.097-.263.297-.437.398-.173l-.001.011ZM153.426 144.961c.088 1.213-.325 2.503-.583 3.681a14.886 14.886 0 0 1-1.146 3.583.294.294 0 0 1-.344.168.293.293 0 0 1-.211-.319c.251-1.266.571-2.517.958-3.748.282-1.123.401-2.362.869-3.425a.247.247 0 0 1 .103-.107.25.25 0 0 1 .147-.027.24.24 0 0 1 .207.194ZM156.025 146.24c.042 1.604.427 3.097.63 4.67a.191.191 0 0 1-.034.131.2.2 0 0 1-.109.078.197.197 0 0 1-.231-.106c-.592-1.472-.626-3.217-.647-4.788-.002-.225.385-.226.393-.006l-.002.021ZM157.612 146.572c.095 1.637.475 3.255.561 4.881.017.237-.342.379-.428.116-.49-1.532-.516-3.338-.575-4.935-.01-.283.427-.352.442-.062ZM159.19 147.817c.416 1.643.723 3.311.918 4.995.016.237-.347.378-.428.117a39.292 39.292 0 0 1-.943-5.046c-.054-.305.413-.364.474-.064l-.021-.002ZM160.577 148.645c.027.902-.024 1.805-.153 2.698-.03.231-.41.265-.434.001-.017-.921.043-1.841.181-2.752.034-.262.413-.202.406.053ZM141.269 239.654a20.789 20.789 0 0 1 2.606 4.431c.656 1.465 1.47 3.285 1.547 4.905a.344.344 0 0 1-.064.224.34.34 0 0 1-.19.134.346.346 0 0 1-.402-.177c-.64-1.473-.923-3.109-1.56-4.603a39.458 39.458 0 0 0-2.39-4.565c-.184-.307.22-.646.453-.349ZM144.162 233.409l3.314 7.826c1.095 2.589 2.375 5.201 3.186 7.888a.229.229 0 0 1-.42.176c-1.324-2.477-2.262-5.228-3.308-7.831l-3.155-7.884a.22.22 0 0 1 .127-.271.226.226 0 0 1 .16-.005.229.229 0 0 1 .122.105l-.026-.004ZM146.559 230.69a90.36 90.36 0 0 1 8.98 20.876c.1.353-.427.588-.552.226a113.487 113.487 0 0 0-8.901-20.84c-.143-.264.304-.524.458-.264l.015.002ZM149.294 224.252a91.592 91.592 0 0 1 7.702 17.12c.094.284-.324.48-.432.184a133.11 133.11 0 0 0-7.7-17.125c-.139-.264.28-.429.425-.18l.005.001ZM157.188 233.192c1.205 2.383 2.564 4.755 3.564 7.231.099.238-.263.489-.402.236-1.359-2.33-2.414-4.867-3.576-7.296-.123-.262.285-.428.414-.171ZM156.487 223.035c2.069 4.178 4.243 8.318 5.984 12.652a.192.192 0 0 1-.354.148c-2.292-4.072-4.171-8.346-6.128-12.588-.147-.317.345-.519.498-.212ZM154.886 212.567c2.042 4.63 4.321 9.249 6.014 14.026a.154.154 0 0 1 0 .119.158.158 0 0 1-.203.085.154.154 0 0 1-.084-.084c-2.323-4.484-4.122-9.327-6.097-13.99a.199.199 0 0 1 0-.155c.021-.05.06-.09.11-.11a.201.201 0 0 1 .265.11l-.005-.001ZM165.378 229.894c1.221 3.028 2.702 6.063 3.632 9.195a.284.284 0 0 1-.15.37.284.284 0 0 1-.37-.15c-1.459-2.924-2.444-6.156-3.615-9.204a.274.274 0 0 1 .503-.211ZM164.435 217.662c1.97 3.695 3.85 7.682 4.779 11.785.056.253-.344.358-.439.121-1.538-3.958-2.896-7.903-4.849-11.69-.162-.319.345-.525.509-.216ZM171.454 223.044c.412 1.653 1.028 3.384 1.2 5.074a.286.286 0 0 1-.542.149c-.633-1.603-.883-3.455-1.282-5.132-.094-.399.53-.453.629-.09l-.005-.001ZM164.861 240.608c.913 2.706 1.862 5.411 2.594 8.177.063.243-.327.344-.417.118-1.048-2.635-1.88-5.356-2.747-8.05-.123-.382.448-.627.555-.247l.015.002ZM160.623 243.255a63.111 63.111 0 0 1 2.099 5.959c.034.14-.181.191-.238.063-.868-1.885-1.418-3.963-2.092-5.927-.049-.153.178-.248.231-.095ZM156.578 245.624c.442 1.103.91 2.209 1.259 3.378a.217.217 0 0 1-.116.288.217.217 0 0 1-.168.001.219.219 0 0 1-.12-.117c-.498-1.11-.885-2.232-1.297-3.362-.103-.291.329-.48.442-.188ZM147.313 209.884c1.253 3.063 2.823 6.173 3.714 9.367a.238.238 0 0 1-.437.189c-1.553-2.93-2.562-6.26-3.765-9.343-.125-.319.361-.523.487-.208l.001-.005ZM148.612 201.225a9.002 9.002 0 0 1 .956 3.375.282.282 0 0 1-.235.245.28.28 0 0 1-.298-.162 16.237 16.237 0 0 0-1.011-3.2c-.174-.383.428-.634.609-.255l-.021-.003ZM70.56 171.15c1.12 2.602 2.552 5.245 3.298 7.986.057.206-.24.241-.33.088-1.413-2.436-2.284-5.304-3.344-7.919a.202.202 0 0 1 .11-.265.204.204 0 0 1 .265.11ZM71.829 163.931c.71 2.016 1.422 4.025 2.137 6.027a50.627 50.627 0 0 1 1.863 5.756c.068.286-.357.377-.476.132a52.62 52.62 0 0 1-2.085-5.832l-1.945-5.892c-.113-.334.39-.551.508-.211l-.002.02ZM72.966 158.727a425.28 425.28 0 0 1 2.074 6.066 53.129 53.129 0 0 1 1.832 5.763c.057.284-.363.381-.477.131-.85-1.856-1.355-3.924-1.98-5.871a332.517 332.517 0 0 1-1.842-5.92c-.081-.262.307-.436.403-.167l-.01-.002ZM73.748 153.76c1.183 2.516 2.38 5.368 2.594 8.177.023.264-.377.405-.466.127-.91-2.731-1.546-5.427-2.73-8.053-.166-.372.403-.606.555-.247l.047-.004ZM74.88 148.556a310.088 310.088 0 0 1 2.993 8.16c.069.197-.219.322-.298.124a254.6 254.6 0 0 1-3.128-8.09c-.113-.297.334-.479.448-.192l-.015-.002ZM82.346 118.578c.972 1.93 1.93 4.082 2.219 6.242.026.196-.28.298-.347.096-.699-2.103-1.232-4.19-2.182-6.206-.09-.194.214-.322.31-.132ZM83.366 113.307c.881 3.193 2.15 6.248 3.093 9.407a.333.333 0 1 1-.614.26c-1.593-2.94-2.45-6.318-3.197-9.567-.107-.463.593-.539.718-.1ZM84.011 109.999a33.193 33.193 0 0 1 2.385 5.364c.529 1.564 1.222 3.42 1.11 5.083a.2.2 0 0 1-.169.163.202.202 0 0 1-.209-.107c-.693-1.658-.853-3.566-1.404-5.273a33.11 33.11 0 0 0-2.168-5.028c-.155-.292.314-.482.47-.2l-.015-.002ZM86.557 110.237a45.457 45.457 0 0 1 2.984 5.98c.817 1.998 1.745 4.225 1.986 6.389.028.26-.36.387-.456.123-.777-2.061-1.214-4.239-2.028-6.3a45.548 45.548 0 0 0-2.882-5.967c-.128-.22.263-.452.39-.226l.006.001ZM90.704 112.141c1.863 4.12 3.601 8.469 4.393 12.947.053.315-.442.465-.542.149-1.441-4.306-2.636-8.658-4.404-12.86a.306.306 0 0 1 .553-.236ZM94.455 113.637a47.503 47.503 0 0 1 2.56 6.035c.658 1.926 1.4 4.05 1.432 6.097.009.336-.478.544-.618.171-.725-1.976-1.033-4.112-1.659-6.127a48.099 48.099 0 0 0-2.295-5.932c-.167-.367.397-.602.554-.247l.026.003ZM97.082 115.903c1.586 3.148 3.055 6.757 3.231 10.35.015.326-.493.531-.597.162-1-3.474-1.76-6.908-3.29-10.216-.196-.418.45-.679.653-.276l.003-.02ZM100.054 115.992c.439.325.78.765.984 1.272.242.465.315.999.206 1.511a.313.313 0 0 1-.458.133.316.316 0 0 1-.117-.134c-.209-.362-.202-.816-.431-1.18a5.713 5.713 0 0 0-.767-1.015c-.337-.341.223-.87.599-.585l-.016-.002ZM128.313 127.226c2.019 4.564 4.26 9.152 5.833 13.887a.298.298 0 1 1-.552.226c-2.275-4.445-3.968-9.259-5.805-13.899a.27.27 0 0 1-.002-.211.275.275 0 0 1 .45-.094.288.288 0 0 1 .061.089l.015.002ZM132.98 129.276a64.799 64.799 0 0 1 2.965 5.842c.804 1.861 1.76 3.825 2.083 5.847a.255.255 0 0 1-.478.137c-.953-1.875-1.518-3.961-2.369-5.895a74.745 74.745 0 0 0-2.78-5.698c-.191-.344.366-.564.553-.236l.026.003ZM136.3 129.666a55.183 55.183 0 0 1 2.256 5.593 25.415 25.415 0 0 1 1.423 5.527c.023.264-.371.401-.466.132-.646-1.824-1.002-3.788-1.585-5.61a66.273 66.273 0 0 0-2.03-5.49c-.112-.26.285-.423.404-.167l-.002.015ZM139.66 131.431c1.045 3.178 2.132 6.35 2.991 9.587.044.147-.2.215-.255.072-1.189-3.113-2.158-6.307-3.161-9.479-.085-.278.334-.479.425-.18ZM65.928 248.94c.52 2.947 1.084 5.889 1.46 8.855a.337.337 0 0 1-.29.38.34.34 0 0 1-.38-.29c-.595-2.931-.99-5.878-1.43-8.851a.327.327 0 0 1 .279-.371.326.326 0 0 1 .371.278l-.01-.001ZM68 248.034l2.236 7.644c.705 2.412 1.557 4.859 2.035 7.33a.297.297 0 0 1-.215.277.294.294 0 0 1-.328-.123c-.885-2.357-1.453-4.892-2.105-7.313-.712-2.56-1.41-5.119-2.095-7.678-.074-.276.41-.412.488-.135l-.015-.002ZM71.403 250.363a58.431 58.431 0 0 1 3.259 7.082c.87 2.277 1.836 4.765 2.11 7.199.041.403-.56.602-.71.195-.867-2.37-1.367-4.881-2.25-7.249a58.747 58.747 0 0 0-3.111-6.932c-.231-.432.47-.717.702-.295ZM77.245 255.832c1.294 3.665 2.628 7.314 3.754 11.03.113.375-.42.619-.554.241-1.372-3.633-2.536-7.343-3.738-11.038-.115-.36.417-.594.553-.231l-.015-.002ZM82.5 260.028a53.337 53.337 0 0 1 2.209 6.235 26.806 26.806 0 0 1 1.204 6.203c.01.284-.421.468-.515.147-.59-1.937-.937-3.968-1.459-5.939a62.455 62.455 0 0 0-2.08-6.385.347.347 0 0 1 .185-.457.35.35 0 0 1 .457.185l-.002.011ZM80.205 250.312c.742 2.333 1.6 4.697 2.065 7.099a.259.259 0 0 1-.498.134c-.95-2.214-1.538-4.643-2.231-6.949-.135-.446.534-.73.674-.283l-.01-.001ZM74.008 244.201c.637 1.452 1.452 2.974 1.826 4.523.064.269-.365.475-.503.211-.827-1.362-1.317-3.014-1.887-4.494a.304.304 0 0 1 .173-.358.305.305 0 0 1 .38.116l.01.002ZM87.759 260.858c.613 1.789 1.233 3.574 1.836 5.366a44.579 44.579 0 0 1 1.615 5.06c.068.318-.4.419-.542.144a45.06 45.06 0 0 1-1.78-5.149c-.566-1.732-1.126-3.464-1.681-5.195-.116-.354.415-.583.552-.226ZM87.915 253.75c.952 2.69 1.966 5.378 2.672 8.145.055.217-.284.293-.369.104-1.147-2.59-2.005-5.315-2.916-7.989-.136-.404.473-.665.613-.26ZM93.175 261.323c1.053 3.273 2.105 6.598 2.949 9.953.096.384-.538.557-.667.185-1.147-3.238-2.06-6.539-2.984-9.842-.128-.461.55-.77.702-.296ZM94.998 258.723a160.51 160.51 0 0 0 1.815 4.845c.633 1.598 1.406 3.167 1.936 4.804a.298.298 0 0 1-.393.384.306.306 0 0 1-.159-.163c-1.624-2.981-2.653-6.439-3.751-9.644-.122-.351.415-.579.552-.226ZM20.843 215.843a58.049 58.049 0 0 1 1.888 5.572c.065.269-.344.357-.45.124a58.103 58.103 0 0 1-1.931-5.478c-.11-.317.366-.522.476-.204l.017-.014ZM20.425 204.401c1.094 2.756 1.809 5.697 2.637 8.528.812 2.718 1.774 5.488 2.2 8.324a.306.306 0 0 1-.587.164c-1.215-2.709-1.877-5.654-2.71-8.495-.795-2.717-1.738-5.515-2.277-8.319a.39.39 0 0 1 .548-.386c.083.038.15.103.19.184ZM21.227 195.465a74.177 74.177 0 0 1 4.13 10.467c.527 1.699 1.024 3.421 1.418 5.17.395 1.75.902 3.718.93 5.551.009.331-.496.558-.618.171-.513-1.682-.718-3.485-1.132-5.201-.443-1.856-.896-3.713-1.431-5.543a89.143 89.143 0 0 0-3.776-10.421c-.14-.327.356-.529.508-.211l-.029.017ZM21.748 187.213c2.178 3.581 4.016 7.807 4.248 12.05a.348.348 0 0 1-.556.328.346.346 0 0 1-.136-.23c-.98-4.152-2.036-8.052-4.217-11.769-.214-.368.42-.74.645-.376l.016-.003ZM23.99 181.463c.511 2.941 1.577 5.557 2.611 8.331a.272.272 0 0 1-.155.319.269.269 0 0 1-.337-.112c-1.454-2.52-2.18-5.614-2.63-8.463-.056-.332.455-.401.532-.072l-.02-.003ZM24.974 177.441a39.13 39.13 0 0 1 2.71 10.622.277.277 0 0 1-.236.256.276.276 0 0 1-.298-.179 68.56 68.56 0 0 0-2.68-10.477c-.124-.34.386-.561.52-.22l-.016-.002ZM26.207 170.212a56.158 56.158 0 0 1 3.444 12.134c.065.379-.504.457-.586.08a112.92 112.92 0 0 0-3.513-11.954c-.153-.433.484-.711.658-.281l-.003.021ZM27.324 164.724c1.072 3.05 2.213 6.089 3.115 9.196.1.352-.4.585-.552.226-1.175-3.017-2.109-6.123-3.114-9.201-.117-.35.41-.584.551-.221ZM28.098 159.661c1.36 2.153 2.91 4.79 3.191 7.366a.324.324 0 0 1-.059.208.324.324 0 0 1-.392.107.321.321 0 0 1-.156-.148c-.524-1.114-.832-2.361-1.3-3.509a27.53 27.53 0 0 0-1.807-3.621c-.21-.357.293-.762.523-.403ZM29.967 155.462c.772 2.097 1.67 4.189 2.309 6.353a.17.17 0 0 1-.096.213.166.166 0 0 1-.126.002.17.17 0 0 1-.093-.084c-.932-2.039-1.622-4.204-2.383-6.31-.1-.269.31-.446.41-.171l-.021-.003ZM31.299 148.198c.847 2.447 1.887 4.897 2.478 7.42.046.21-.266.279-.352.095-1.071-2.329-1.757-4.89-2.585-7.318-.102-.306.354-.477.459-.197ZM33.225 162.91a44.823 44.823 0 0 1 1.492 8.614c.032.401-.586.488-.617.086a52.557 52.557 0 0 0-1.5-8.556c-.09-.347.511-.514.608-.167l.017.023ZM30.594 167.705c.846 1.814 1.76 4.065 1.646 6.109a.422.422 0 0 1-.36.35.419.419 0 0 1-.438-.245c-.282-.883-.38-1.821-.612-2.724a20.583 20.583 0 0 0-1.081-3.135c-.237-.553.596-.889.845-.355Z"/><path d="M29.604 181.499a53.117 53.117 0 0 1 2.189 8.16c.072.407-.535.453-.628.086a98.07 98.07 0 0 0-2.307-7.931c-.166-.492.57-.809.746-.315ZM28.102 192.481c.814 2.051 1.658 4.444 1.597 6.678-.012.375-.514.299-.597.006-.585-2.166-.847-4.291-1.62-6.419-.151-.407.463-.672.62-.265ZM28.265 200.823c.333 1.454.668 2.898.921 4.363.03.171-.242.256-.298.082-.446-1.433-.776-2.913-1.15-4.373-.088-.325.45-.406.532-.072h-.005ZM26.676 206.605c.434 1.972 1 3.912 1.695 5.807a.198.198 0 0 1-.104.261.196.196 0 0 1-.152.002.201.201 0 0 1-.109-.106 27.276 27.276 0 0 1-1.873-5.888c-.075-.35.474-.425.533-.077l.01.001ZM18.85 200.716a.166.166 0 0 1 .043-.324.166.166 0 0 1 .062.28.17.17 0 0 1-.104.044ZM16.644 207.071a10.774 10.774 0 0 1 1.039 4.787c-.006.245-.39.231-.424.002a16.868 16.868 0 0 0-1.184-4.549.31.31 0 0 1 .554-.242l.015.002ZM28.868 219.721c.345 1.362.632 2.695.949 4.074.396 1.334.717 2.69.96 4.06a.362.362 0 0 1-.688.188 20.801 20.801 0 0 1-1.025-3.928 45.382 45.382 0 0 1-.713-4.32.269.269 0 1 1 .532-.072l-.015-.002ZM31.74 213.076c.762 2.492 1.588 5.344 1.402 7.974-.052.401-.569.355-.669.002-.3-1.267-.37-2.624-.582-3.917a49.124 49.124 0 0 0-.797-3.877c-.093-.373.536-.547.645-.182ZM27.057 239.7c1.965.721 3.28 2.58 4.337 4.301 1.327 2.169 2.478 4.451 3.692 6.684l3.962 7.309c1.238 2.252 2.58 4.595 3.071 7.157a.527.527 0 0 1-1.013.281c-1.774-4.72-4.297-9.072-6.672-13.505-1.152-2.151-2.282-4.316-3.462-6.45a18.048 18.048 0 0 0-4.247-5.199.324.324 0 0 1-.081-.424.327.327 0 0 1 .41-.134l.003-.02ZM41.466 259.171c.675 1.482 1.339 2.962 1.993 4.44.588 1.342 1.464 2.804 1.701 4.236a.433.433 0 0 1-.264.454.438.438 0 0 1-.51-.132c-.863-1.157-1.272-2.831-1.806-4.186a233.38 233.38 0 0 1-1.764-4.557.352.352 0 1 1 .652-.27l-.002.015ZM42.947 258.794c.787 1.979 1.873 4.033 2.295 6.137.078.402-.463.462-.64.178-1.048-1.825-1.56-4.071-2.286-6.046-.15-.417.465-.682.63-.269ZM43.872 251.483a42.004 42.004 0 0 1 1.685 4.359c.4 1.264.88 2.597.842 3.935-.005.276-.397.277-.495.066-.604-1.265-.806-2.718-1.215-4.072a41.652 41.652 0 0 0-1.48-4.008.363.363 0 0 1 .663-.28ZM44.176 246.213a92.55 92.55 0 0 1 2.064 6.106c.27.903.525 1.807.766 2.713.249.937.664 1.963.522 2.937a.289.289 0 0 1-.209.24.284.284 0 0 1-.166-.006.281.281 0 0 1-.134-.096c-.493-.749-.576-1.685-.777-2.547a85.235 85.235 0 0 0-.715-2.821 89.904 89.904 0 0 0-1.937-6.273c-.134-.383.442-.632.586-.248v-.005ZM45.223 243.03a86.732 86.732 0 0 1 2.434 6.636c.344 1.051.666 2.112.966 3.183.389 1.079.655 2.199.793 3.338a.363.363 0 0 1-.694.192 18.01 18.01 0 0 1-.83-2.899 85.293 85.293 0 0 0-1.055-3.696 135.676 135.676 0 0 0-2.2-6.506.317.317 0 0 1 .413-.418c.078.031.14.093.173.17Z"/><path d="M48.633 246.866c.226 3.082.992 5.951 1.695 8.938.083.366-.49.511-.628.174-1.145-2.814-1.507-6.013-1.642-9.03-.015-.368.55-.451.575-.082ZM56.86 286.495a162.843 162.843 0 0 0 4.932 9.73 28.79 28.79 0 0 1 1.788 3.322.326.326 0 0 1-.368.458.333.333 0 0 1-.197-.134c-1.449-1.835-2.414-4.255-3.45-6.339a124.204 124.204 0 0 1-3.186-6.838c-.134-.3.329-.48.47-.2l.01.001ZM62.381 289.404c1.639 3.871 3.303 7.71 4.865 11.608l-.786.216a68.591 68.591 0 0 0-1.702-9.889c-.088-.325.412-.433.543-.155.864 1.832 1.65 3.701 2.46 5.547.81 1.846 1.82 3.696 2.355 5.606.09.309-.343.661-.565.318-.991-1.697-1.615-3.654-2.39-5.448-.794-1.928-1.654-3.874-2.41-5.817l.543-.154a69.04 69.04 0 0 0 1.952 9.859c.123.461-.605.632-.786.217-1.634-3.871-3.171-7.761-4.755-11.651a.347.347 0 0 1 .636-.268l.04.011ZM69.209 291.515c1.197 3.851 2.67 7.586 4.045 11.361l-.713.1c.053-.406.15-.795.26-1.189.06-.222.422-.279.444-.005.032.396.033.788.038 1.192.005.403-.54.619-.715.194a96.836 96.836 0 0 1-3.817-11.472c-.086-.304.364-.501.459-.191l-.001.01ZM71.956 293.974a70.4 70.4 0 0 0 1.567 5.189c.485 1.412 1.443 3.01 1.551 4.503a.264.264 0 0 1-.16.268.263.263 0 0 1-.304-.072c-1.017-1.22-1.408-3.319-1.872-4.812a73.764 73.764 0 0 1-1.362-4.995c-.087-.372.489-.459.58-.081ZM74.331 295.244c.636 1.5 1.143 3.065 1.696 4.596l.791 2.193c.13.367.42 1.92.77 2.112l-.482.131.138.352a.34.34 0 0 1-.186-.22.337.337 0 0 1 .052-.283l.038-.048a.392.392 0 0 1 .658.086l.063.113a.378.378 0 0 1-.052.401l-.065.101a.418.418 0 0 1-.482.125c-.572-.22-.65-.779-.836-1.321-.304-.876-.61-1.746-.908-2.621-.621-1.811-1.306-3.62-1.819-5.463-.114-.407.45-.679.625-.264l-.001.01ZM77.202 297.797l1.556 4.431c.46 1.319 1.176 2.766 1.317 4.138.027.233-.311.419-.454.192-.75-1.19-1.053-2.751-1.504-4.064l-1.51-4.455c-.129-.383.442-.627.554-.247l.041.005ZM79.537 295.802l1.927 5.273c.58 1.601 1.412 3.319 1.675 4.995.054.351-.404.417-.543.154-.849-1.506-1.31-3.416-1.875-5.063l-1.75-5.114c-.128-.377.437-.623.555-.247l.01.002ZM83.444 298.145c.65 2.473 1.54 4.997 1.943 7.522l-.68.005c.024-.306.063-.612.119-.914.061-.274.501-.322.523-.005.021.316.023.666.015 1.005-.007.339-.547.394-.66.087-.88-2.43-1.332-5.097-1.967-7.604-.111-.433.59-.519.681-.1l.026.004ZM84.993 299.01a36.372 36.372 0 0 1 1.774 4.041c.446 1.228 1.04 2.649 1.088 3.967a.364.364 0 0 1-.518.379.366.366 0 0 1-.176-.187c-.573-1.256-.79-2.716-1.266-4.006a34.833 34.833 0 0 0-1.68-3.877c-.245-.487.534-.809.78-.332l-.002.015ZM88.278 301.115c.923 2.347 2.015 5.002 2.229 7.534.037.396-.543.598-.695.197-.449-1.208-.667-2.502-1.034-3.736a65.732 65.732 0 0 0-1.208-3.695c-.169-.466.529-.767.708-.3ZM90.454 300.259c.854 1.752 1.667 4.021 1.342 5.996a.349.349 0 0 1-.122.203.348.348 0 0 1-.445.003.353.353 0 0 1-.124-.201c-.422-1.978-.55-3.798-1.42-5.673-.224-.489.538-.802.77-.328ZM55.002 283.055a.197.197 0 0 1-.095-.351.195.195 0 0 1 .146-.039.191.191 0 0 1 .13.075.198.198 0 0 1-.181.315ZM54.74 273.342c.89 2.729 1.997 5.34 2.992 8.014l-.697.098c.01-.521-.003-.737.036-1.203.037-.282.403-.245.461-.008.094.405.152.799.225 1.205.072.407-.528.559-.694.192a63.527 63.527 0 0 1-2.848-8.074c-.106-.348.409-.573.551-.22l-.026-.004Z"/><path d="M56.353 275.089c.451 1.187.901 2.375 1.35 3.562a17.5 17.5 0 0 1 1.14 3.284c.04.251-.34.442-.481.204a17.547 17.547 0 0 1-1.27-3.217l-1.287-3.596c-.131-.362.417-.599.552-.232l-.004-.005ZM59.19 276.064c.582 1.827 1.424 3.75 1.731 5.645a.286.286 0 0 1-.208.303.286.286 0 0 1-.334-.154c-.822-1.717-1.173-3.754-1.71-5.569-.107-.348.414-.573.55-.221l-.03-.004ZM60.86 276.804c.349 1.331.652 2.656.981 3.979a30.5 30.5 0 0 1 .919 3.987c.034.339-.458.5-.586.164a30.595 30.595 0 0 1-.974-3.842l-.99-4.195c-.098-.415.55-.498.65-.093ZM62.384 277.698c.699 1.935 1.747 4 2.09 6.02.073.444-.52.544-.71.195-.973-1.757-1.441-4.018-2.093-5.921-.158-.471.545-.771.714-.3l-.001.006Z"/></g><defs><clipPath id="a"><path fill="#fff" transform="scale(-1 1) rotate(-7.415 93.398 2038.773)" d="M0 0h225.513v300H0z"/></clipPath></defs></svg>