<svg width="142" height="173" viewBox="0 0 142 173" fill="none" xmlns="http://www.w3.org/2000/svg">
<g clip-path="url(#clip0_1_2090)">
<path d="M25.4122 34.6375C25.3536 33.3426 26.2405 32.2504 27.2855 31.572C28.5991 30.722 30.456 30.843 31.9564 30.8079C35.1293 30.7337 38.3084 30.7416 41.484 30.7558C47.8316 30.7902 54.1841 30.902 60.5348 31.0458C73.3835 31.3357 86.2271 31.842 99.0663 32.3704C100.792 32.4322 102.527 32.4915 104.257 32.5889C105.508 32.5971 106.749 32.808 107.932 33.2137C108.458 33.3822 108.931 33.6831 109.307 34.0875C109.682 34.4918 109.947 34.9861 110.076 35.5226C110.357 36.5693 110.65 37.5079 111.764 37.9068C112.773 38.2706 113.25 36.6644 112.242 36.3055C111.78 36.1462 111.734 35.2515 111.613 34.8592C111.484 34.3709 111.273 33.9081 110.989 33.4903C110.398 32.6921 109.588 32.0824 108.658 31.7348C106.301 30.7672 103.545 30.9291 101.05 30.8323C94.1931 30.5726 87.3376 30.3316 80.4836 30.1095C66.9201 29.6756 53.3505 29.3953 39.7748 29.4837C37.9018 29.498 36.0229 29.5296 34.1437 29.5403C32.4922 29.4919 30.8394 29.5272 29.1915 29.6458C26.4867 29.9407 23.315 31.3304 23.7016 34.5926C23.8216 35.6666 25.4854 35.7713 25.437 34.6518L25.4122 34.6375Z" fill="#EADAC5"/>
<path d="M29.774 36.3782C34.5071 36.3158 39.2585 36.3218 43.9861 36.5912C46.3173 36.7215 48.6495 36.9145 50.9544 37.1619C52.0829 37.2842 53.2055 37.4237 54.3307 37.5731C55.456 37.7225 56.51 38.0953 57.5041 37.6769C57.57 37.639 57.6266 37.5869 57.6696 37.5242C57.7126 37.4616 57.741 37.39 57.7526 37.3149C57.7642 37.2398 57.7587 37.163 57.7366 37.0903C57.7145 37.0176 57.6763 36.9508 57.6249 36.8949C56.8722 36.2577 55.919 36.2614 54.9709 36.1275C53.7742 35.9659 52.5828 35.8238 51.3842 35.6941C48.9932 35.4383 46.5921 35.2428 44.1912 35.126C39.3748 34.8742 34.5461 34.9921 29.7478 35.4783C29.1812 35.5357 29.1245 36.4002 29.7299 36.39L29.774 36.3782Z" fill="#EADAC5"/>
<path d="M61.7172 37.5916C69.6753 38.2954 77.6694 38.4288 85.6336 38.4705C93.5978 38.5122 101.586 38.3901 109.556 38.1209C110.559 38.0881 110.601 36.52 109.589 36.5394C101.625 36.8175 93.6489 36.9485 85.6618 36.9321C77.6855 36.9042 69.7132 36.6759 61.7344 36.7167C61.6225 36.7174 61.5153 36.7616 61.4355 36.84C61.3556 36.9183 61.3095 37.0247 61.3067 37.1366C61.304 37.2484 61.3449 37.357 61.4207 37.4392C61.4966 37.5214 61.6016 37.5708 61.7133 37.577L61.7172 37.5916Z" fill="#EADAC5"/>
<path d="M31.5551 30.1708C32.4438 27.7937 32.9506 25.283 34.2312 23.0578C34.872 21.9107 35.7495 20.9131 36.8055 20.1312C37.8614 19.3493 39.0716 18.801 40.3557 18.5228C43.3618 17.8065 46.588 17.8332 49.659 17.6919C52.941 17.5359 56.232 17.4265 59.532 17.3636C66.1026 17.2457 72.6691 17.3281 79.2317 17.6108C82.5187 17.7471 85.7885 17.7412 89.072 17.9624C90.6411 18.0662 92.207 18.1972 93.7733 18.3489C95.3528 18.4348 96.9236 18.6395 98.4723 18.9613C101.507 19.721 102.556 22.1085 103.076 24.952C103.521 27.3546 103.959 29.7537 105.536 31.7061C106.312 32.6462 107.686 31.3345 106.901 30.4019C105.358 28.5558 105.126 25.9494 104.464 23.7151C103.803 21.4808 102.747 19.457 100.551 18.4412C97.873 17.2137 94.5309 17.3804 91.6601 17.1536C90.1007 17.0471 88.5283 16.8919 86.9614 16.777C85.1006 16.6412 83.2585 16.3798 81.4075 16.2414C74.3035 15.7123 67.1155 15.7301 59.9897 15.8045C56.5673 15.8408 53.1432 15.9299 49.7177 16.0719C46.5445 16.2039 43.2522 16.1843 40.1345 16.8362C38.6633 17.1067 37.2641 17.679 36.0251 18.5172C34.7861 19.3554 33.7342 20.4412 32.9359 21.7062C31.4385 24.2243 30.5161 27.0422 30.2347 29.9584C30.1463 30.7632 31.3123 30.8493 31.5649 30.1682L31.5551 30.1708Z" fill="#EADAC5"/>
<path d="M48.9973 27.7253C50.8137 27.852 52.6269 28.0057 54.4495 28.0574C56.0704 28.1001 58.0887 28.4716 59.6751 27.9941C59.8037 27.9573 59.9173 27.8805 59.9992 27.7747C60.0811 27.669 60.1271 27.5398 60.1304 27.406C60.1338 27.2723 60.0944 27.141 60.0179 27.0312C59.9414 26.9215 59.832 26.839 59.7053 26.7959C58.1546 26.252 56.1338 26.5366 54.507 26.5112C52.6835 26.4755 50.8497 26.5579 49.0472 26.6005C48.8989 26.5971 48.7554 26.6528 48.6481 26.7553C48.5409 26.8578 48.4787 26.9986 48.4754 27.1469C48.472 27.2952 48.5276 27.4388 48.6301 27.546C48.7326 27.6532 48.8735 27.7154 49.0218 27.7188L48.9973 27.7253Z" fill="#EADAC5"/>
<path d="M80.4852 27.8651C83.5111 28.1815 86.8341 28.7853 89.8646 28.2773C89.9528 28.2518 90.0306 28.1987 90.0865 28.1257C90.1423 28.0528 90.1735 27.9639 90.1753 27.8721C90.177 27.7802 90.1493 27.6902 90.0962 27.6152C90.0431 27.5403 89.9675 27.4841 89.8803 27.4553C86.9363 26.6032 83.5464 26.8457 80.5045 26.8219C80.4354 26.8208 80.3667 26.8333 80.3024 26.8588C80.2381 26.8842 80.1794 26.9221 80.1298 26.9702C80.0295 27.0674 79.9719 27.2005 79.9697 27.3401C79.9675 27.4798 80.0208 27.6145 80.118 27.7148C80.2151 27.8151 80.3482 27.8727 80.4878 27.8749L80.4852 27.8651Z" fill="#EADAC5"/>
<path d="M28.5022 59.0631C33.0209 60.2745 37.8647 60.586 42.5295 60.9927C47.319 61.4149 52.1176 61.7142 56.9251 61.8905C66.5439 62.2451 76.1746 62.1143 85.7802 61.4984C90.51 61.1888 95.2296 60.763 99.939 60.2211C101.064 60.0908 102.191 59.9637 103.318 59.84C104.545 59.6842 105.948 59.3449 106.331 60.8727C106.482 61.8042 106.512 62.7511 106.42 63.6903L106.349 67.5314L106.077 81.8378C106.034 84.24 106.002 86.6444 105.799 89.037C105.55 91.5049 105.156 93.956 104.621 96.3779C103.796 100.363 103.149 104.369 102.598 108.396C102.049 112.333 101.843 116.279 101.471 120.232C101.417 120.833 102.343 120.847 102.409 120.253C102.795 116.684 103.518 113.14 104.005 109.597C104.497 105.953 105.025 102.309 105.745 98.6978C106.231 96.266 106.773 93.8456 107.11 91.3857C107.409 89.0029 107.571 86.6051 107.597 84.2039C107.711 79.2295 107.787 74.2496 107.88 69.2756C107.924 66.8157 108.089 64.3231 107.992 61.8643C107.936 60.4059 107.518 58.746 105.946 58.2602C105.042 57.9781 104.054 58.1852 103.137 58.3051C101.875 58.4651 100.601 58.6229 99.3432 58.7607C96.8103 59.0515 94.2748 59.3062 91.7366 59.525C81.8658 60.3709 71.9578 60.7036 62.0526 60.5218C56.5371 60.4164 51.0267 60.1542 45.5215 59.7349C42.6999 59.5159 39.8799 59.2439 37.0648 58.9707C34.2497 58.6974 31.4596 58.3021 28.6314 58.2735C28.5284 58.2708 28.4279 58.3057 28.3486 58.3715C28.2694 58.4374 28.2167 58.5297 28.2004 58.6314C28.1841 58.7332 28.2053 58.8375 28.26 58.9248C28.3148 59.0121 28.3993 59.0765 28.498 59.1061L28.5022 59.0631Z" fill="#EADAC5"/>
<path d="M101.888 119.952C100.031 120.476 98.1267 120.803 96.25 121.253C94.3732 121.704 92.4698 122.172 90.5561 122.543C86.7182 123.311 82.8401 123.862 78.9401 124.193C75.0972 124.499 71.2393 124.573 67.3874 124.415C65.4403 124.336 63.4975 124.194 61.559 123.99C59.7944 123.802 57.778 123.184 56.0482 123.752C55.9502 123.781 55.8625 123.838 55.7953 123.914C55.7282 123.991 55.6843 124.086 55.669 124.187C55.6537 124.288 55.6675 124.391 55.7088 124.485C55.7501 124.578 55.8172 124.658 55.9023 124.714C57.4136 125.835 59.7136 125.79 61.5174 125.967C63.453 126.148 65.3948 126.279 67.3427 126.362C71.3343 126.499 75.3305 126.382 79.3073 126.013C83.231 125.675 87.1267 125.067 90.9671 124.194C92.8563 123.751 94.7571 123.273 96.6069 122.683C98.4568 122.093 100.247 121.22 102.07 120.433C102.338 120.319 102.159 119.885 101.885 119.958L101.888 119.952Z" fill="#EADAC5"/>
<path d="M51.0324 123.581C46.2096 122.839 41.4483 121.955 36.9346 120.019C35.9109 119.597 34.9091 119.124 33.9332 118.6C33.451 118.374 33.0377 118.024 32.7358 117.585C32.434 117.146 32.2544 116.635 32.2157 116.104C31.8388 113.484 31.6628 110.831 31.4022 108.196C30.3839 97.8996 29.1959 87.5963 28.6632 77.2538C28.5136 74.3475 28.4332 71.4384 28.4219 68.5266C28.4249 67.1032 28.4375 65.6827 28.4595 64.2648C28.4759 63.4845 28.4869 62.6847 28.5183 61.9213L28.5421 61.0709C28.5532 60.8582 28.5583 60.6419 28.5645 60.4305C28.7244 59.9316 28.5004 59.7609 27.9037 59.9208C29.1001 60.6487 30.2672 58.7632 29.0512 58.0405C28.8692 57.9267 28.6657 57.8517 28.4533 57.8199C28.241 57.7882 28.0244 57.8005 27.817 57.856C27.6096 57.9116 27.4159 58.0093 27.2479 58.1429C27.0798 58.2766 26.9411 58.4433 26.8403 58.6329C26.1461 59.7206 26.4035 61.2875 26.3909 62.5124C26.3625 65.4978 26.3967 68.4821 26.4936 71.4654C26.6896 77.4209 27.0624 83.371 27.6032 89.3023C28.1085 95.1015 28.7144 100.884 29.2811 106.678C29.5534 109.651 29.9004 112.609 30.131 115.582C30.2145 116.677 30.2642 117.801 30.8577 118.764C31.4512 119.727 32.5503 120.366 33.5579 120.898C38.7935 123.689 45.0489 125.473 50.999 124.885C51.1739 124.889 51.3431 124.823 51.4695 124.702C51.5959 124.582 51.6691 124.415 51.673 124.241C51.6769 124.066 51.6112 123.896 51.4903 123.77C51.3694 123.644 51.2033 123.57 51.0284 123.567L51.0324 123.581Z" fill="#EADAC5"/>
<path d="M25.4568 36.7013C26.8351 37.0712 28.7848 37.3823 30.0557 36.549C30.1443 36.491 30.2152 36.4097 30.2606 36.314C30.3061 36.2184 30.3243 36.1121 30.3134 36.0068C30.3025 35.9014 30.2629 35.8011 30.1988 35.7168C30.1347 35.6325 30.0487 35.5675 29.9501 35.5288C29.2697 35.3962 28.572 35.3777 27.8855 35.4739C27.1356 35.5123 26.3897 35.5653 25.6411 35.6086C25.0312 35.641 24.8068 36.5452 25.4581 36.7062L25.4568 36.7013Z" fill="#EADAC5"/>
<path d="M26.9404 37.8561C27.7634 41.3578 27.5046 45.1074 27.5425 48.6727C27.5796 52.4113 27.5166 56.187 27.8851 59.9102C27.8891 60.0517 27.9473 60.1862 28.0477 60.286C28.1481 60.3858 28.283 60.4431 28.4245 60.4463C28.5661 60.4494 28.7034 60.3982 28.8081 60.3029C28.9129 60.2077 28.977 60.0758 28.9873 59.9347C29.2811 56.0026 29.1083 52.0121 29.0335 48.074C28.9676 44.5214 29.1971 40.8582 27.6505 37.5713C27.4596 37.1716 26.8388 37.4377 26.9404 37.8561Z" fill="#EADAC5"/>
<path d="M107.721 38.4708C107.261 42.2325 106.842 45.997 106.464 49.7647L105.888 55.3033C105.704 57.1243 105.3 58.9786 105.663 60.7844C105.773 61.3525 106.517 61.2527 106.716 60.801C107.398 59.1607 107.379 57.3099 107.557 55.5479C107.743 53.6318 107.929 51.7156 108.114 49.7995C108.483 46.0308 108.837 42.266 109.148 38.5131C109.221 37.5918 107.85 37.5818 107.724 38.4806L107.721 38.4708Z" fill="#EADAC5"/>
<path d="M100.119 120.589C98.399 130.486 97.5223 140.441 95.9974 150.344C95.8005 151.566 95.6535 152.974 94.8261 153.956C93.9988 154.937 92.4762 155.34 91.2557 155.735C88.672 156.58 86.0466 157.367 83.4003 157.997C78.1916 159.251 72.8762 160.01 67.5249 160.264C64.5332 160.396 61.536 160.323 58.5541 160.047C55.3678 159.758 52.3144 159.045 49.1741 158.497C48.1564 158.319 47.6611 159.757 48.7007 160.076C51.3615 160.889 54.2132 161.22 56.9763 161.612C59.8185 161.987 62.6785 162.211 65.5444 162.284C71.2386 162.491 76.9355 161.955 82.4911 160.689C85.256 160.095 87.9689 159.28 90.6041 158.253C92.8378 157.335 95.6483 156.535 96.7957 154.204C97.8481 152.066 97.7237 149.273 97.9992 146.956C98.3291 144.274 98.6586 141.591 98.9877 138.906C99.716 132.839 100.4 126.784 100.923 120.693C100.962 120.253 100.245 120.12 100.146 120.571L100.119 120.589Z" fill="#EADAC5"/>
<path d="M30.9694 119.415C30.742 120.447 30.6934 121.51 30.8257 122.557C30.8892 123.773 30.9552 124.997 31.0458 126.216C31.1883 128.509 31.3465 130.801 31.5202 133.093C31.865 137.745 32.1653 142.388 32.4439 147.047C32.5508 148.875 32.6709 150.751 33.8398 152.257C35.0087 153.763 37.0727 154.657 38.6929 155.675C42.3501 157.996 46.2902 159.839 50.4165 161.157C52.6417 161.851 55.143 162.675 57.5071 162.497C58.1904 162.445 58.8375 162.141 59.503 162.12C60.1095 162.13 60.7147 162.18 61.3149 162.269C62.594 162.366 63.868 162.445 65.146 162.48C66.2043 162.516 66.2713 160.81 65.1822 160.834C63.2469 160.87 60.8046 161.147 58.9839 160.398C58.0667 160.005 57.1189 159.687 56.15 159.448C55.1042 159.204 54.0488 158.963 53.0037 158.76C48.9529 157.906 45.3185 156.101 41.6719 154.232C39.9027 153.405 38.1897 152.463 36.544 151.411C35.0177 150.352 34.8756 148.55 34.6318 146.839C34.0088 142.439 33.5109 138.038 33.1807 133.597C32.9858 131.16 32.806 128.722 32.6413 126.281C32.557 125.066 32.5105 123.836 32.4017 122.628C32.4098 121.514 32.2318 120.406 31.8749 119.351C31.6973 118.943 31.0766 119.072 30.9577 119.45L30.9694 119.415Z" fill="#EADAC5"/>
<path d="M110.207 35.8542C110.242 36.2037 110.161 36.555 109.977 36.8542C109.756 37.1235 109.472 37.3345 109.151 37.4687C108.728 37.7289 108.822 38.5688 109.428 38.5009C110.646 38.3735 111.552 36.883 111.249 35.7322C111.234 35.5972 111.166 35.4739 111.059 35.3893C110.953 35.3047 110.818 35.2658 110.683 35.2811C110.548 35.2964 110.425 35.3646 110.34 35.4709C110.255 35.5771 110.216 35.7127 110.232 35.8476L110.207 35.8542Z" fill="#EADAC5"/>
<path d="M101.223 39.2054C101.412 39.2072 101.422 38.9111 101.233 38.9093C101.193 38.9081 101.155 38.9223 101.126 38.9492C101.098 38.976 101.081 39.0132 101.08 39.0525C101.078 39.0918 101.093 39.1299 101.12 39.1586C101.146 39.1873 101.184 39.2042 101.223 39.2054Z" fill="#EADAC5"/>
<path d="M101.259 39.0069C100.762 39.3313 100.351 39.7704 100.061 40.2873L98.4463 42.4604C97.5253 43.719 96.2801 44.9806 95.7064 46.4397C95.63 46.6437 95.9017 46.875 96.0813 46.743C97.3276 45.8376 98.1914 44.3269 99.071 43.0899C99.5563 42.4356 100.021 41.724 100.473 41.026C100.926 40.3281 101.358 39.8455 101.434 39.1121C101.433 39.0918 101.427 39.072 101.417 39.0545C101.407 39.037 101.392 39.0223 101.375 39.0119C101.358 39.0014 101.338 38.9955 101.318 38.9946C101.297 38.9937 101.277 38.998 101.259 39.0069Z" fill="#EADAC5"/>
<path d="M102.793 39.4872C102.627 40.4334 101.944 41.0934 101.346 41.7987C100.749 42.5041 100.183 43.1904 99.6053 43.8905C98.5532 45.1685 97.2065 46.4626 96.4427 47.936C96.3958 48.0105 96.3779 48.0995 96.3923 48.1864C96.4067 48.2732 96.4526 48.3518 96.5211 48.4071C96.5896 48.4624 96.6759 48.4907 96.7638 48.4866C96.8517 48.4824 96.9351 48.4462 96.9981 48.3847C98.4848 47.1633 99.6252 45.2954 100.816 43.7915C101.789 42.5713 103.242 41.2227 103.291 39.5685C103.3 39.2882 102.847 39.2001 102.793 39.4872Z" fill="#EADAC5"/>
<path d="M107.651 38.7571C106.494 40.1155 105.333 41.4751 104.186 42.8309C103.145 44.0694 101.815 45.3693 101.06 46.8143C101.003 46.9032 100.981 47.0101 100.998 47.1142C101.016 47.2184 101.071 47.3124 101.154 47.3778C101.237 47.4433 101.342 47.4755 101.447 47.4682C101.552 47.461 101.651 47.4147 101.724 47.3386C102.974 46.3066 103.96 44.7263 104.95 43.4494C106.04 42.0405 107.111 40.616 108.189 39.2C108.426 38.8902 107.909 38.4678 107.653 38.7669L107.651 38.7571Z" fill="#EADAC5"/>
<path d="M107.118 43.4399C103.53 47.0968 100.38 51.1588 97.7315 55.5437C97.6795 55.6272 97.6627 55.7279 97.6849 55.8237C97.7072 55.9195 97.7666 56.0025 97.8501 56.0545C97.9335 56.1066 98.0343 56.1233 98.1301 56.1011C98.2259 56.0789 98.3089 56.0196 98.3609 55.9361C101.175 51.7393 104.227 47.7075 107.503 43.8609C107.732 43.6003 107.369 43.2048 107.124 43.4644L107.118 43.4399Z" fill="#EADAC5"/>
<path d="M98.1912 50.372C97.6487 50.9017 97.1479 51.4723 96.693 52.0789C96.1968 52.6534 95.8069 53.3118 95.5416 54.0231C95.5227 54.0928 95.5268 54.1666 95.5534 54.2337C95.58 54.3008 95.6275 54.3576 95.689 54.3954C95.7505 54.4332 95.8225 54.4501 95.8944 54.4435C95.9663 54.437 96.0341 54.4074 96.0877 54.3591C96.5601 53.8246 96.981 53.2467 97.3448 52.633C97.7855 52.0082 98.2328 51.3884 98.6868 50.774C98.9067 50.4792 98.445 50.1258 98.1938 50.3818L98.1912 50.372Z" fill="#EADAC5"/>
<path d="M105.05 52.4922C103.815 53.9453 102.324 55.4457 101.486 57.1697C101.452 57.2309 101.442 57.302 101.455 57.3704C101.469 57.4389 101.506 57.5005 101.56 57.5445C101.614 57.5885 101.682 57.6121 101.751 57.6114C101.821 57.6106 101.888 57.5855 101.942 57.5403C103.354 56.239 104.363 54.3697 105.382 52.7704C105.515 52.5618 105.207 52.2931 105.046 52.4935L105.05 52.4922Z" fill="#EADAC5"/>
<path d="M101.775 59.6769C100.516 62.2673 98.9059 64.6712 96.989 66.8205C96.9486 66.8762 96.9292 66.9444 96.9339 67.013C96.9387 67.0816 96.9673 67.1463 97.0149 67.1959C97.0626 67.2456 97.1261 67.2769 97.1944 67.2845C97.2628 67.2921 97.3317 67.2755 97.389 67.2375C99.5622 65.2041 101.248 62.7058 102.32 59.9294C102.446 59.6177 101.92 59.3759 101.776 59.6818L101.775 59.6769Z" fill="#EADAC5"/>
<path d="M104.902 62.7181C103.725 64.1972 102.526 65.7086 101.393 67.2337C100.261 68.7587 98.9029 70.2654 98.1338 71.9342C97.9831 72.2524 98.3633 72.6539 98.6494 72.3518C99.8997 71.0312 100.848 69.2672 101.898 67.7854C103.031 66.1711 104.199 64.5807 105.401 63.0144C105.625 62.7182 105.14 62.434 104.912 62.7155L104.902 62.7181Z" fill="#EADAC5"/>
<path d="M106.106 67.3502C104.363 69.259 102.69 71.2119 101.071 73.2291C99.4511 75.2463 97.5192 77.3891 96.3109 79.747C96.1622 80.0333 96.5279 80.3809 96.7843 80.1444C98.4996 78.348 99.8516 76.135 101.369 74.1662C103.032 72.0009 104.742 69.8704 106.467 67.7569C106.669 67.514 106.34 67.146 106.112 67.3906L106.106 67.3502Z" fill="#EADAC5"/>
<path d="M97.3039 73.4938C96.0475 75.2617 94.6127 77.0091 93.6965 78.9899C93.5696 79.2599 93.9011 79.6167 94.1448 79.3522C95.6257 77.7182 96.6873 75.6931 97.8389 73.8275C98.0541 73.4762 97.5367 73.1693 97.3039 73.4938Z" fill="#EADAC5"/>
<path d="M106.192 73.1882C103.905 75.3007 101.827 77.6291 99.9867 80.1408C98.2229 82.5585 96.2155 85.3191 95.4244 88.2363C95.4122 88.2889 95.4186 88.3441 95.4427 88.3924C95.4667 88.4408 95.5068 88.4793 95.556 88.5014C95.6053 88.5235 95.6607 88.5278 95.7127 88.5136C95.7648 88.4994 95.8103 88.4675 95.8415 88.4234C96.7169 87.2295 97.3491 85.8909 98.0991 84.6204C98.8491 83.35 99.7133 81.9966 100.602 80.7361C102.391 78.1984 104.38 75.8086 106.551 73.59C106.604 73.5398 106.634 73.4707 106.636 73.398C106.638 73.3253 106.611 73.255 106.56 73.2024C106.51 73.1498 106.441 73.1193 106.368 73.1177C106.296 73.116 106.225 73.1432 106.173 73.1935L106.192 73.1882Z" fill="#EADAC5"/>
<path d="M106.465 78.6672C104.373 81.1534 102.302 83.6498 100.251 86.1566C98.6408 88.1294 96.5073 90.1848 95.9536 92.7553C95.9333 92.8492 95.9462 92.9473 95.99 93.0328C96.0339 93.1182 96.1061 93.1858 96.1943 93.224C96.2825 93.2622 96.3812 93.2687 96.4735 93.2423C96.5659 93.2158 96.6463 93.1583 96.701 93.0793C98.7196 89.8909 102.106 87.3059 105.27 85.3413L104.745 84.79C103.159 87.4429 101.156 89.7676 99.2906 92.2176C97.555 94.4861 95.7242 97.0842 95.2038 99.955C95.1318 100.352 95.6705 100.679 95.9006 100.266C97.811 96.85 100.897 94.0049 103.777 91.4088L103.142 90.9969C102.082 94.2797 99.2949 96.5574 97.3635 99.3082C95.4273 102.212 93.7765 105.297 92.4342 108.519C92.2283 108.983 93.0266 109.341 93.2449 108.884C94.8074 105.597 96.2817 102.256 98.4281 99.2903C100.342 96.6491 102.891 94.4246 103.912 91.2308C103.937 91.1457 103.933 91.0548 103.901 90.9722C103.869 90.8895 103.811 90.8196 103.735 90.7732C103.66 90.7268 103.571 90.7065 103.483 90.7153C103.395 90.7241 103.312 90.7615 103.247 90.8219C100.496 93.7032 98.1559 96.983 95.3246 99.7601L95.954 100.152C96.9138 97.3308 98.3516 94.6952 100.204 92.3607C102.003 90.0125 103.963 87.7623 105.425 85.195C105.606 84.8738 105.247 84.4143 104.9 84.6437C103.285 85.7156 101.752 86.9045 100.311 88.2008C98.7939 89.5616 97.5132 91.1211 96.0731 92.5555C96.3039 92.6929 96.5311 92.8364 96.757 92.9751C97.6773 90.3641 99.6474 88.3054 101.355 86.186C103.254 83.8316 105.134 81.4599 106.992 79.071C107.227 78.7722 106.723 78.357 106.476 78.6486L106.465 78.6672Z" fill="#EADAC5"/>
<path d="M100.476 102.06C99.0768 104.039 97.7164 106.045 96.4254 108.094C95.2136 110.028 93.8035 112.005 92.9351 114.125C92.7299 114.631 93.4674 114.879 93.752 114.494C95.1381 112.623 96.1512 110.417 97.3695 108.428C98.5878 106.44 99.8523 104.429 101.146 102.468C101.425 102.042 100.77 101.651 100.481 102.059L100.476 102.06Z" fill="#EADAC5"/>
<path d="M98.172 108.664C98.9916 107.414 99.9662 106.272 101.073 105.266L100.52 104.926C99.5889 107.535 97.6359 109.442 96.036 111.669C95.2264 112.803 94.4774 113.978 93.792 115.191C93.185 116.271 92.3657 117.518 92.1327 118.781C92.1085 118.88 92.1195 118.984 92.1641 119.075C92.2087 119.167 92.284 119.24 92.3769 119.282C92.4697 119.323 92.5742 119.331 92.6723 119.304C92.7704 119.277 92.8558 119.216 92.9138 119.133C93.7397 118.067 94.2045 116.632 94.8715 115.462C95.5814 114.191 96.3611 112.96 97.2072 111.775C98.6593 109.74 100.73 107.743 101.136 105.17C101.181 104.886 100.823 104.53 100.579 104.832C99.5862 105.999 98.6646 107.224 97.8191 108.502C97.685 108.706 98.0039 108.898 98.1393 108.699L98.172 108.664Z" fill="#EADAC5"/>
<path d="M101.637 109.23C100.438 111.821 98.5302 113.974 96.7704 116.191C95.8718 117.285 95.0435 118.435 94.2905 119.634C93.6449 120.688 92.943 121.825 92.936 123.09C92.938 123.144 92.9572 123.197 92.9907 123.24C93.0242 123.282 93.0704 123.314 93.1227 123.329C93.1749 123.344 93.2306 123.342 93.2818 123.323C93.3329 123.305 93.3769 123.271 93.4076 123.226C94.2364 122.112 94.6853 120.755 95.4406 119.583C96.196 118.41 97.021 117.361 97.8529 116.278C99.5044 114.127 101.107 111.988 102.113 109.443C102.223 109.168 101.762 108.955 101.637 109.23Z" fill="#EADAC5"/>
<path d="M95.9988 126.401C94.5177 128.035 93.2068 129.816 92.0862 131.716C90.93 133.526 89.5943 135.467 88.8693 137.496C88.7132 137.931 89.3518 138.357 89.6612 137.986C89.9054 137.714 90.1292 137.425 90.3309 137.12C90.3669 137.057 90.3815 136.985 90.3727 136.913C90.364 136.841 90.3322 136.775 90.2823 136.722C90.2323 136.67 90.1668 136.636 90.0955 136.624C90.0243 136.612 89.9511 136.624 89.887 136.657C89.5803 136.847 89.2863 137.057 89.007 137.286L89.7492 137.884C90.9377 136.098 91.815 134.07 92.9562 132.243C94.0973 130.417 95.4666 128.719 96.6002 126.884C96.6455 126.804 96.661 126.71 96.6438 126.62C96.6267 126.529 96.5782 126.448 96.5068 126.39C96.4353 126.332 96.3456 126.301 96.2535 126.303C96.1614 126.304 96.0729 126.339 96.0037 126.399L95.9988 126.401Z" fill="#EADAC5"/>
<path d="M96.7213 129.41C96.1203 130.337 95.326 131.168 94.6678 132.058C94.0096 132.947 93.4027 133.891 92.8304 134.846C91.68 136.644 90.7334 138.565 90.0082 140.572C89.8411 141.084 90.605 141.293 90.7946 140.807C90.8713 140.624 90.9468 140.436 91.0173 140.25C91.0879 140.063 90.7696 139.834 90.5903 139.987L90.1182 140.396L90.7777 140.901C91.724 139.033 92.4958 137.08 93.4879 135.226C94.4799 133.372 95.5433 131.157 96.9502 129.58C96.971 129.553 96.9803 129.52 96.9763 129.486C96.9723 129.453 96.9552 129.423 96.9288 129.402C96.9024 129.381 96.8688 129.372 96.8355 129.376C96.8022 129.38 96.7717 129.397 96.751 129.423L96.7213 129.41Z" fill="#EADAC5"/>
<path d="M97.3617 131.918C95.6862 134.073 94.1962 136.367 92.9075 138.773C92.2622 139.939 91.647 141.119 91.0619 142.314C90.4153 143.458 89.8925 144.669 89.5024 145.924C89.3408 146.612 90.4269 146.772 90.4482 146.069C90.45 145.959 90.4568 145.847 90.4586 145.736C90.4572 145.668 90.4363 145.602 90.3983 145.546C90.3604 145.489 90.3069 145.445 90.2444 145.418C90.1819 145.391 90.113 145.382 90.0459 145.394C89.9787 145.405 89.9163 145.435 89.8659 145.481L89.629 145.712L90.3725 146.315C91.0138 145.151 91.5827 143.948 92.0759 142.713C92.6453 141.512 93.2477 140.323 93.883 139.146C95.1468 136.8 96.5545 134.54 97.8928 132.237C98.0982 131.888 97.6122 131.62 97.3728 131.92L97.3617 131.918Z" fill="#EADAC5"/>
<path d="M95.7673 139.8C94.385 142.115 93.0324 144.443 91.7308 146.805C90.4851 149.063 89.1514 151.344 88.1299 153.715C87.9266 154.189 88.6448 154.6 88.9764 154.233C89.2031 153.983 89.4188 153.732 89.653 153.491C89.7087 153.44 89.7436 153.37 89.7508 153.295C89.7581 153.22 89.7372 153.145 89.6922 153.085C89.6473 153.024 89.5815 152.983 89.5076 152.968C89.4337 152.953 89.3569 152.967 89.2923 153.005C88.9914 153.154 88.6839 153.278 88.3546 153.419L89.0399 154.137C90.3593 151.881 91.4533 149.448 92.6353 147.129C93.8173 144.81 95.0541 142.46 96.2876 140.137C96.4744 139.778 95.958 139.455 95.7477 139.805L95.7673 139.8Z" fill="#EADAC5"/>
<path d="M94.5285 146.701C93.6558 147.983 92.8445 149.338 92.0962 150.713C91.3246 151.979 90.7089 153.334 90.2626 154.748C90.1519 155.176 90.7321 155.639 91.0705 155.239C91.2743 155.008 91.4587 154.761 91.6219 154.499C91.6447 154.459 91.6554 154.414 91.6528 154.368C91.6502 154.322 91.6344 154.278 91.6073 154.241C91.5801 154.204 91.5429 154.175 91.5 154.159C91.4571 154.143 91.4103 154.139 91.3654 154.149C91.0672 154.229 90.776 154.333 90.4948 154.46L91.1487 155.14C91.8504 153.846 92.3291 152.365 92.9587 151.016C93.5955 149.655 94.3018 148.326 95.0746 147.037C95.1192 146.964 95.1331 146.877 95.1134 146.794C95.0937 146.711 95.042 146.64 94.9695 146.595C94.8971 146.551 94.8099 146.537 94.7272 146.557C94.6445 146.576 94.573 146.628 94.5285 146.701Z" fill="#EADAC5"/>
<path d="M94.0234 151.586C93.743 152.222 93.459 152.864 93.1626 153.499C92.8689 153.965 92.6979 154.498 92.6654 155.048C92.6656 155.117 92.6858 155.184 92.7235 155.241C92.7611 155.299 92.8147 155.344 92.8776 155.372C92.9405 155.399 93.0102 155.408 93.0779 155.397C93.1457 155.385 93.2087 155.355 93.2594 155.308C93.6356 154.854 93.8924 154.313 94.0068 153.735C94.2242 153.079 94.4603 152.433 94.6888 151.78C94.8413 151.351 94.1998 151.187 94.0234 151.586Z" fill="#EADAC5"/>
<path d="M97.8282 39.2342C97.1629 39.7343 96.5354 40.2826 95.9506 40.8749C95.459 41.3683 94.7296 41.9728 94.5547 42.6698C94.5302 42.7642 94.5337 42.8637 94.5645 42.9563C94.5953 43.0488 94.6522 43.1306 94.7284 43.1916C94.8046 43.2526 94.8967 43.2903 94.9938 43.3002C95.0909 43.3101 95.1888 43.2917 95.2756 43.2472C95.91 42.9147 96.3415 42.1385 96.8253 41.6157C97.3091 41.0928 97.9403 40.4938 98.5271 39.9643C99.0208 39.5175 98.3304 38.8584 97.8086 39.2394L97.8282 39.2342Z" fill="#EADAC5"/>
<path d="M95.5343 39.4975C94.8994 40.115 94.244 40.7082 93.5682 41.2773C92.8619 41.8071 92.2068 42.4022 91.6117 43.0546C91.5533 43.096 91.5137 43.1588 91.5017 43.2293C91.4896 43.2999 91.5061 43.3724 91.5475 43.4308C91.5888 43.4893 91.6518 43.5289 91.7224 43.541C91.793 43.5531 91.8654 43.5366 91.9239 43.4952C93.5064 42.7881 94.8314 41.2377 96.0046 40.0006C96.0595 39.9368 96.0888 39.8547 96.0867 39.7705C96.0845 39.6863 96.051 39.6059 95.9928 39.5449C95.9346 39.484 95.8559 39.4469 95.7719 39.4408C95.6878 39.4347 95.6046 39.4603 95.5382 39.5122L95.5343 39.4975Z" fill="#EADAC5"/>
<path d="M92.0373 38.8514C91.1678 39.6891 90.2746 40.5033 89.3576 41.2943C88.4664 42.0574 87.3767 42.7844 86.6266 43.6827C86.5628 43.75 86.5246 43.8375 86.5189 43.93C86.5131 44.0226 86.5401 44.1142 86.5951 44.1889C86.6501 44.2635 86.7296 44.3164 86.8197 44.3384C86.9098 44.3603 87.0048 44.3498 87.0879 44.3087C88.1149 43.7976 89.013 42.8649 89.8625 42.1026C90.8075 41.2465 91.7087 40.3445 92.5961 39.4304C92.659 39.3536 92.6915 39.2564 92.6874 39.1572C92.6834 39.0581 92.6431 38.9638 92.5742 38.8924C92.5053 38.821 92.4125 38.7774 92.3135 38.7699C92.2146 38.7623 92.1163 38.7913 92.0373 38.8514Z" fill="#EADAC5"/>
<path d="M89.4487 39.4821C88.4058 40.2858 87.3564 41.0651 86.3249 41.8919C85.2551 42.6345 84.2504 43.4666 83.3216 44.3795C83.0721 44.6613 83.3725 45.1366 83.7265 44.9316C84.7923 44.2344 85.797 43.4478 86.7296 42.5804C87.7835 41.7003 88.8259 40.7971 89.871 39.9037C90.1519 39.6607 89.7609 39.2779 89.4757 39.4854L89.4487 39.4821Z" fill="#EADAC5"/>
<path d="M86.1349 39.5C84.5371 40.835 82.7519 41.9793 81.2201 43.3648C81.1724 43.4104 81.1428 43.4717 81.1367 43.5374C81.1307 43.6032 81.1486 43.6689 81.1873 43.7224C81.2259 43.776 81.2826 43.8138 81.3469 43.8288C81.4112 43.8438 81.4787 43.8351 81.5371 43.8042C83.3718 42.825 84.9836 41.3078 86.5151 39.9014C86.7813 39.6623 86.4015 39.2817 86.1362 39.5049L86.1349 39.5Z" fill="#EADAC5"/>
<path d="M83.7828 39.3696L81.4489 41.3422C80.6313 41.9506 79.8718 42.6333 79.18 43.3815C78.967 43.6431 79.2194 44.1154 79.561 43.9033C80.3703 43.335 81.127 42.6953 81.8222 41.992C82.6205 41.2538 83.4218 40.5462 84.2191 39.8241C84.5228 39.5487 84.0904 39.1089 83.7828 39.3696Z" fill="#EADAC5"/>
<path d="M77.8926 40.4554C76.5366 41.2644 74.9245 42.2521 74.044 43.5837C73.9385 43.7378 74.1462 43.9652 74.3004 43.8557C74.9147 43.429 75.4178 42.8801 76.0053 42.3924C76.6752 41.8263 77.3812 41.3044 78.1188 40.8299C78.3473 40.6848 78.1443 40.2988 77.9148 40.4598L77.8926 40.4554Z" fill="#EADAC5"/>
<path d="M76.5279 39.1381C74.4124 40.4389 72.0943 41.9618 70.6164 43.9987C70.4904 44.1741 70.7357 44.4439 70.9152 44.3119C72.944 42.8246 74.7129 41.0714 76.8433 39.7089C77.197 39.4831 76.889 38.9208 76.5279 39.1381Z" fill="#EADAC5"/>
<path d="M96.5049 35.1956L95.3277 36.1244C94.9158 36.4082 94.5316 36.7306 94.1806 37.0871C94.1435 37.1276 94.1216 37.1796 94.1184 37.2344C94.1153 37.2892 94.1312 37.3433 94.1635 37.3877C94.1957 37.4321 94.2424 37.4641 94.2955 37.4781C94.3485 37.492 94.4048 37.4872 94.4547 37.4644C94.8727 37.2029 95.2642 36.9015 95.6237 36.5641L96.8474 35.5546C97.0971 35.3514 96.7509 34.9987 96.5049 35.1956Z" fill="#EADAC5"/>
<path d="M98.0227 31.9579C96.5883 33.5113 94.8643 34.8646 93.5432 36.5082C93.4097 36.6751 93.6532 36.9191 93.8332 36.808C95.5793 35.6743 97.002 33.8619 98.3516 32.3049C98.5516 32.0731 98.2338 31.7283 98.0227 31.9579Z" fill="#EADAC5"/>
<path d="M100.426 32.6508C99.8415 33.2478 99.2544 33.835 98.6836 34.444C98.1172 34.972 97.6143 35.5641 97.1852 36.2085C97.0445 36.4664 97.3594 36.8592 97.6214 36.6631C98.2169 36.1737 98.7519 35.6151 99.215 34.9989C99.7632 34.3645 100.285 33.7108 100.795 33.0708C101.02 32.7955 100.66 32.3889 100.4 32.6524L100.426 32.6508Z" fill="#EADAC5"/>
<path d="M103.402 32.4089C102.139 33.8379 100.6 35.2567 99.6413 36.9029C99.6179 36.9494 99.6112 37.0026 99.6223 37.0536C99.6334 37.1046 99.6616 37.1502 99.7022 37.1828C99.7429 37.2155 99.7935 37.2333 99.8456 37.2331C99.8978 37.233 99.9483 37.2149 99.9887 37.182C101.472 36.0085 102.621 34.3063 103.838 32.8634C104.097 32.5581 103.671 32.101 103.402 32.4089Z" fill="#EADAC5"/>
<path d="M106.809 32.8175C106.186 33.33 105.595 33.8789 105.037 34.4614C104.926 34.5959 105.066 34.8416 105.236 34.7331C105.905 34.2518 106.544 33.7303 107.15 33.1716C107.395 32.9697 107.048 32.596 106.808 32.8126L106.809 32.8175Z" fill="#EADAC5"/>
<path d="M104.251 27.4789C102.987 28.3596 101.796 29.343 100.693 30.4192C100.659 30.4554 100.638 30.5024 100.635 30.5521C100.632 30.6018 100.647 30.6511 100.676 30.6912C100.706 30.7313 100.748 30.7599 100.797 30.7718C100.845 30.7838 100.896 30.7783 100.941 30.7565C102.259 29.9134 103.505 28.9622 104.666 27.9128C104.972 27.6632 104.556 27.2452 104.257 27.4984L104.251 27.4789Z" fill="#EADAC5"/>
<path d="M103.267 24.2928L101.048 26.5387C100.307 27.18 99.657 27.9187 99.1146 28.7345C99.0783 28.799 99.0637 28.8735 99.0731 28.9469C99.0825 29.0204 99.1153 29.0888 99.1666 29.1421C99.218 29.1955 99.2852 29.2308 99.3582 29.243C99.4313 29.2551 99.5062 29.2433 99.5721 29.2095C100.368 28.6436 101.084 27.9739 101.702 27.2181L103.878 24.9311C104.291 24.5163 103.671 23.8856 103.267 24.2928Z" fill="#EADAC5"/>
<path d="M101.87 23.6606C100.573 25.1196 99.2003 26.5308 98.0164 28.08C97.7689 28.4084 98.284 28.8051 98.5655 28.5252C99.9297 27.1793 101.137 25.6604 102.397 24.2167C102.717 23.8478 102.197 23.2952 101.87 23.6606Z" fill="#EADAC5"/>
<path d="M100.701 22.9358C100.052 23.4872 99.4263 24.048 98.8086 24.6381C98.1908 25.1492 97.6614 25.7587 97.242 26.442C97.1017 26.7208 97.3847 27.1115 97.6996 26.917C98.3365 26.4419 98.9185 25.8973 99.4349 25.2934C100.035 24.6974 100.663 24.1254 101.306 23.5704C101.731 23.1997 101.127 22.57 100.701 22.9358Z" fill="#EADAC5"/>
<path d="M100.032 21.0654C99.5389 21.3678 99.0664 21.7028 98.6179 22.0681C98.1418 22.399 97.7363 22.8213 97.425 23.3105C97.2597 23.6326 97.5954 24.0827 97.9503 23.8618C98.3649 23.5501 98.755 23.2073 99.1173 22.8362C99.5384 22.4685 99.9863 22.1328 100.458 21.8321C100.902 21.5347 100.513 20.7686 100.032 21.0654Z" fill="#EADAC5"/>
<path d="M46.5074 82.4122C45.8694 80.5595 43.6515 81.3215 42.715 82.4637C41.3007 84.19 40.7532 86.5491 40.4234 88.7031C40.0936 90.857 39.6045 93.4731 40.6051 95.5641C41.4014 97.1857 43.3169 98.3081 45.0897 97.6653C44.977 97.2447 44.8643 96.824 44.7528 96.4082C43.1659 97.0012 41.9341 95.2605 41.3761 93.9998C40.7962 92.6153 40.5846 91.1042 40.7618 89.6137C41.0112 87.0619 42.3538 83.4831 45.3209 83.1495C46.1914 83.0525 46.2344 81.6675 45.3492 81.7684C41.422 82.1968 39.5677 86.3897 39.3432 89.9152C39.1637 91.8787 39.6197 93.8479 40.644 95.5327C41.5551 96.9767 43.2625 98.3594 45.0688 97.6657C45.8389 97.3702 45.5425 96.1075 44.732 96.4086C43.2585 96.9554 41.9178 95.8258 41.4722 94.4563C41.0008 93.0098 41.2205 91.3257 41.3697 89.8282C41.4921 88.2906 41.8101 86.775 42.3159 85.3178C42.7695 84.0953 44.2318 81.0612 45.8863 82.7358C46.1149 82.9629 46.5831 82.7537 46.4669 82.4178L46.5074 82.4122Z" fill="#EADAC5"/>
<path d="M48.0336 83.765C47.508 87.2035 46.8809 90.8893 47.0031 94.3586C47.0402 95.3972 47.2641 96.585 48.1593 97.2258C49.1564 97.9338 50.3557 97.5968 51.2402 96.867C53.4291 95.038 54.0047 91.649 54.1512 88.9675C54.245 87.4248 54.2264 85.8774 54.0954 84.3374C53.9996 83.3146 53.7454 82.1507 52.9649 81.39C52.517 80.9813 51.9374 80.747 51.3315 80.7294C50.7255 80.7119 50.1334 80.9124 49.6627 81.2945C48.2978 82.305 48.0556 84.1209 48.0725 85.7101C48.082 85.8714 48.1518 86.0231 48.2681 86.1352C48.3844 86.2474 48.5386 86.3117 48.7001 86.3153C48.8616 86.3189 49.0185 86.2617 49.1397 86.1549C49.2609 86.0481 49.3374 85.8995 49.3542 85.7389C49.4363 84.5583 49.5882 81.545 51.5515 82.0045C52.7255 82.2772 52.8402 84.0552 52.8821 85.0139C53.0119 87.6895 53.0744 90.5248 52.1774 93.0666C51.7909 94.1872 50.8411 96.4339 49.3904 96.3612C47.9397 96.2886 48.1676 94.0676 48.2166 93.0374C48.3868 89.9354 48.7119 86.8443 49.1737 83.7742C49.2818 83.0427 48.1289 83.0055 48.0235 83.7468L48.0336 83.765Z" fill="#EADAC5"/>
<path d="M60.8951 81.8915C60.3369 80.7671 58.8795 80.8064 57.9735 81.4948C56.6646 82.4798 56.3054 84.5631 55.9826 86.0389C55.6127 87.9182 55.4329 89.8298 55.4459 91.7451C55.4341 92.7967 55.4453 93.8948 55.3699 94.9635C55.2945 96.0322 55.0009 97.0493 54.9105 98.1011C54.9112 98.2403 54.9567 98.3756 55.0403 98.4869C55.1239 98.5982 55.2412 98.6796 55.3747 98.7191C55.5082 98.7586 55.6508 98.754 55.7816 98.7062C55.9123 98.6583 56.0241 98.5697 56.1005 98.4533C56.6993 97.2443 56.7536 95.7251 56.7999 94.3915C56.8539 92.8515 56.7799 91.3037 56.8436 89.761C56.9007 88.4089 57.6195 80.6041 60.2666 82.5004C60.6557 82.7788 61.0883 82.2801 60.8951 81.8915Z" fill="#EADAC5"/>
<path d="M59.6299 86.6394C59.0909 86.5846 58.5071 86.7149 57.9503 86.6911C57.3934 86.6673 56.9558 86.5014 56.4423 86.7176C56.3793 86.7532 56.3253 86.8028 56.2843 86.8625C56.2433 86.9221 56.2165 86.9904 56.2059 87.062C56.1952 87.1336 56.2011 87.2067 56.2229 87.2757C56.2448 87.3447 56.282 87.4078 56.332 87.4602C56.7403 87.9275 57.4452 87.9169 58.0248 87.9083C58.6544 87.9409 59.2805 87.795 59.8308 87.4874C59.9133 87.4356 59.977 87.3586 60.0126 87.2679C60.0482 87.1773 60.0537 87.0776 60.0285 86.9835C60.0033 86.8894 59.9487 86.8059 59.8725 86.7451C59.7964 86.6844 59.7027 86.6496 59.6054 86.646L59.6299 86.6394Z" fill="#EADAC5"/>
<path d="M67.9812 82.2366C67.5682 81.1257 66.3694 80.8387 65.3199 81.3244C63.9549 81.9628 63.5824 83.6249 63.3915 84.9867C62.7336 89.399 63.4626 93.8802 62.5085 98.2827L63.8381 98.3144C63.7519 98.003 63.5926 97.7167 63.3733 97.4795C63.3154 97.4233 63.244 97.3831 63.1659 97.3628C63.0879 97.3425 63.0059 97.3428 62.928 97.3637C62.8501 97.3845 62.779 97.4252 62.7216 97.4818C62.6641 97.5384 62.6224 97.609 62.6004 97.6866C62.4922 97.939 62.4524 98.2155 62.4849 98.4882C62.5119 99.2149 63.6751 99.5062 63.836 98.6976C64.455 95.6274 64.3437 92.5117 64.3686 89.3961C64.3396 87.8147 64.4421 86.2335 64.6748 84.669C64.9049 83.3754 65.9958 81.3425 67.5657 82.5838C67.6132 82.6104 67.6673 82.6228 67.7217 82.6194C67.776 82.6161 67.8282 82.5972 67.8721 82.565C67.916 82.5328 67.9497 82.4886 67.9692 82.4378C67.9886 82.3869 67.993 82.3316 67.9819 82.2784L67.9812 82.2366Z" fill="#EADAC5"/>
<path d="M67.249 86.6848C66.2679 86.7101 65.2963 86.8838 64.3673 87.2001C64.2101 87.2572 64.0801 87.3712 64.0029 87.5195C63.9256 87.6678 63.9068 87.8397 63.9501 88.0012C63.9933 88.1628 64.0956 88.3022 64.2366 88.392C64.3777 88.4818 64.5473 88.5155 64.712 88.4865C65.6832 88.3575 66.6293 88.0827 67.5185 87.6715C67.6103 87.6087 67.6803 87.519 67.7189 87.4148C67.7575 87.3105 67.7628 87.1968 67.734 87.0895C67.7053 86.9821 67.6439 86.8864 67.5583 86.8154C67.4728 86.7444 67.3672 86.7017 67.2564 86.6932L67.249 86.6848Z" fill="#EADAC5"/>
<path d="M73.3152 82.2649C72.241 81.132 70.5982 81.9077 70.0037 83.1522C69.5553 84.1007 69.5824 85.1996 69.5481 86.2258L69.4224 90.2177C69.3774 91.4845 69.3359 92.7452 69.2981 93.9996C69.267 94.9987 69.1065 96.1217 69.4486 97.1048C70.0155 98.7511 72.1391 99.3197 73.6955 98.8083C73.8425 98.767 73.9701 98.6746 74.0553 98.5478C74.1405 98.421 74.1777 98.268 74.1604 98.1162C74.1431 97.9644 74.0723 97.8238 73.9607 97.7194C73.8491 97.6151 73.704 97.5539 73.5514 97.5467C72.1355 97.3495 70.7153 97.7824 70.6363 95.7851C70.5757 94.2286 70.6796 92.6595 70.71 91.11C70.7404 89.5605 70.7588 88.0247 70.7857 86.4814C70.7454 85.6947 70.7944 84.9061 70.9316 84.1304C71.1368 83.331 71.9141 82.4358 72.8439 82.8735C73.2166 83.0514 73.6418 82.623 73.3204 82.2845L73.3152 82.2649Z" fill="#EADAC5"/>
<path d="M73.0865 86.6355C72.4118 86.5878 71.7348 86.5836 71.0595 86.6229C70.9837 86.6212 70.9083 86.6345 70.8375 86.6619C70.7668 86.6894 70.7022 86.7305 70.6473 86.7829C70.5925 86.8353 70.5485 86.898 70.5179 86.9675C70.4873 87.0369 70.4707 87.1117 70.469 87.1875C70.4673 87.2634 70.4805 87.3388 70.508 87.4095C70.5354 87.4802 70.5765 87.5449 70.6289 87.5997C70.6814 87.6545 70.7441 87.6984 70.8135 87.729C70.8829 87.7597 70.9577 87.7763 71.0335 87.778C71.7056 87.8459 72.3814 87.8715 73.0567 87.8546C73.2184 87.8585 73.375 87.7981 73.4921 87.6866C73.6092 87.5751 73.6772 87.4217 73.6812 87.26C73.6851 87.0984 73.6247 86.9417 73.5132 86.8246C73.4017 86.7074 73.2482 86.6395 73.0865 86.6355Z" fill="#EADAC5"/>
<path d="M79.1654 81.793C78.8756 81.5624 78.534 81.4059 78.1702 81.3371C77.8063 81.2683 77.4312 81.2893 77.0772 81.398C76.7233 81.5068 76.4012 81.7001 76.1388 81.9614C75.8764 82.2227 75.6816 82.5439 75.5713 82.8974C75.2206 83.956 75.4416 85.1918 75.4981 86.2829L75.7327 90.7391L75.9577 94.983C76.021 96.1194 75.8304 97.6384 76.2378 98.7088C76.5539 99.5363 77.3929 99.6156 78.1664 99.6652C79.2782 99.7448 80.6071 99.7347 81.6194 99.2276C81.703 99.1752 81.7675 99.0975 81.8037 99.0058C81.8398 98.914 81.8454 98.813 81.8199 98.7178C81.7944 98.6225 81.739 98.5379 81.6618 98.4765C81.5847 98.4151 81.4899 98.38 81.3913 98.3764C80.5021 98.384 79.6438 98.6246 78.7458 98.6188C78.3268 98.6508 77.9053 98.6206 77.4951 98.5292C77.0387 98.274 77.1449 97.5746 77.1202 97.1304C77.007 95.2209 76.8954 93.311 76.7855 91.4007L76.4557 85.8848C76.409 85.0846 76.2356 84.1244 76.4422 83.3299C76.5134 83.0966 76.6351 82.8819 76.7986 82.7009C76.9622 82.52 77.1636 82.3773 77.3886 82.283C77.6135 82.1887 77.8565 82.1451 78.1003 82.1553C78.344 82.1655 78.5825 82.2292 78.7988 82.342C78.8702 82.3854 78.9559 82.3988 79.0371 82.379C79.1184 82.3592 79.1884 82.3079 79.2318 82.2365C79.2753 82.165 79.2885 82.0793 79.2687 81.9981C79.2489 81.9169 79.1977 81.8469 79.1262 81.8035L79.1654 81.793Z" fill="#EADAC5"/>
<path d="M79.1839 86.6949C78.6807 86.6624 78.1756 86.6767 77.675 86.7375C77.1401 86.7555 76.6089 86.8344 76.0919 86.9729C75.9552 87.0124 75.8368 87.0989 75.7578 87.2172C75.6787 87.3355 75.6441 87.4781 75.66 87.6195C75.6759 87.7609 75.7413 87.892 75.8447 87.9898C75.9481 88.0876 76.0827 88.1456 76.2248 88.1537C76.7747 88.1338 77.3201 88.0475 77.8493 87.8967C78.3693 87.7958 78.8785 87.6453 79.3698 87.4473C79.7676 87.2883 79.5418 86.7196 79.1693 86.6989L79.1839 86.6949Z" fill="#EADAC5"/>
</g>
<defs>
<clipPath id="clip0_1_2090">
<rect width="106.521" height="150" fill="white" transform="translate(0 27.5693) rotate(-15)"/>
</clipPath>
</defs>
</svg>
